<svg width="1440" height="542" viewBox="0 0 1440 542" fill="none" xmlns="http://www.w3.org/2000/svg">
<g clip-path="url(#clip0_1_929)">
<path d="M-1191.18 -90L-1117.12 -72.0775C-1043.05 -54.825 -894.918 -17.975 -746.786 26.0775C-598.653 70.8 -450.52 124.4 -302.388 124.4C-154.255 124.4 -6.12244 70.8 142.01 52.8775C290.143 35.625 438.275 52.375 586.408 70.8C734.541 89.225 882.673 105.975 1030.81 79.6775C1178.94 52.375 1327.07 -17.975 1475.2 8.3225C1623.34 35.625 1771.47 159.575 1919.6 186.878C2067.73 213.175 2215.87 142.825 2289.93 106.477L2364 70.8V446H2289.93C2215.87 446 2067.73 446 1919.6 446C1771.47 446 1623.34 446 1475.2 446C1327.07 446 1178.94 446 1030.81 446C882.673 446 734.541 446 586.408 446C438.275 446 290.143 446 142.01 446C-6.12244 446 -154.255 446 -302.388 446C-450.52 446 -598.653 446 -746.786 446C-894.918 446 -1043.05 446 -1117.12 446H-1191.18V-90Z" fill="#D3D4ED"/>
<path d="M1468.72 100.627H-585V291.672H1468.72V100.627Z" fill="#D3D4ED"/>
<path d="M1403 100.254H-36V178.985H1403V100.254Z" fill="#D3D4ED"/>
</g>
<path d="M0 101H1440V542H0V101Z" fill="#D3D4ED"/>
<defs>
<clipPath id="clip0_1_929">
<rect width="1440" height="100" fill="white" transform="translate(0 1)"/>
</clipPath>
</defs>
</svg>
