<svg width="405" height="505" viewBox="0 0 405 505" fill="none" xmlns="http://www.w3.org/2000/svg">
<g clip-path="url(#clip0_1615_19)">
<path fill-rule="evenodd" clip-rule="evenodd" d="M45.5525 293.614C52.4267 265.022 76.806 242.836 109.594 231.784C115.896 228.654 122.006 215.226 130.476 212.767C131.834 212.373 129.691 215.51 130.476 215.697C133.277 216.366 136.416 216.435 139.509 214.022C145.036 209.709 146.77 197.108 150.131 191.413C167.856 161.376 212.11 173.128 218.039 206.333C222.173 208.699 228.017 210.783 232.517 212.689C237.151 214.652 241.227 219.406 246.002 221.106C250.263 222.622 257.283 221.548 261.577 222.87C281.323 228.951 298.048 236.625 311.16 252.172C313.923 255.451 317.038 259.482 319.552 262.795C332.514 275.895 341.517 290.578 349.809 306.331C373.009 352.569 379.319 403.765 384.98 453.583C384.851 462.3 391.44 486.471 381.695 490.65C382.278 491.18 382.067 492.244 380.986 492.235C356.278 492.016 331.627 493.957 307.302 497.732C295.566 499.553 283.892 502.05 271.937 502.461C247.121 502.31 222.394 498.66 197.61 502.114C167.816 502.114 131.608 501.352 98.4622 500.233C67.4846 499.188 36.341 501.549 5.7472 496.924C3.32554 496.588 2.14292 493.995 2.65052 492.137C6.23992 480.654 8.00196 468.836 10.016 457.084C9.61492 449.546 10.3325 441.677 13.5089 434.656C21.8079 387.258 32.4498 340.169 45.5525 293.614Z" fill="#FFDBB4"/>
<path fill-rule="evenodd" clip-rule="evenodd" d="M130.476 215.871C129.691 215.684 131.834 212.546 130.476 212.94C122.006 215.4 115.896 228.828 109.594 231.957C76.8058 243.01 52.4266 265.196 45.5524 293.787C32.4497 340.343 21.8077 387.432 13.5087 434.829C10.3323 441.85 9.61477 449.72 10.0159 457.258L9.69968 459.114C7.81128 470.253 6.05089 481.432 2.65041 492.31C2.1428 494.168 3.3254 496.761 5.74705 497.098C35.9932 501.67 66.7768 499.414 97.406 500.373L103.79 500.583C135.451 501.605 169.405 502.288 197.61 502.288C222.394 498.833 247.121 502.484 271.937 502.634C283.892 502.224 295.565 499.727 307.302 497.905C331.627 494.131 356.278 492.19 380.986 492.409C382.067 492.418 382.278 491.353 381.695 490.823C391.44 486.644 384.851 462.474 384.98 453.757L384.468 449.27C378.925 400.871 372.312 351.355 349.809 306.504L349.135 305.229C341.027 289.959 332.163 275.714 319.552 262.968L318.78 261.954C316.418 258.857 313.647 255.297 311.16 252.345C298.048 236.798 281.323 229.125 261.576 223.044C257.283 221.722 250.263 222.796 246.002 221.279C241.536 219.69 237.681 215.428 233.41 213.277L233.41 229.32L171.605 282.77L136.551 235.582L132.986 216.255C132.127 216.208 131.287 216.065 130.476 215.871Z" fill="#8FA7DF"/>
<path fill-rule="evenodd" clip-rule="evenodd" d="M55.5497 355.915C56.2034 358.701 57.1196 361.488 58.3378 364.128C59.5115 366.675 61.2795 368.958 62.4973 371.475C62.6607 371.814 62.9281 372.071 63.2505 372.266L63.15 372.951L63.0573 373.636C62.4499 378.257 61.7668 382.865 61.1752 387.485L60.8878 389.797C59.7245 399.444 57.8872 409.043 56.4609 418.665C55.0644 428.086 53.6426 437.508 52.1227 446.916C50.5529 456.616 48.9533 466.303 47.0863 475.963C46.2981 480.043 45.4754 484.12 44.6184 488.193L43.9565 491.311C37.1421 492.75 35.2801 501.089 42.2182 504.167C45.3674 505.558 49.4134 505.223 52.0088 503.037C54.706 500.758 54.8179 496.649 55.4439 493.562L56.0469 490.694C60.5591 469.128 64.4752 447.314 66.306 425.443C66.7765 419.796 67.1727 414.144 67.4302 408.487C67.6749 403.166 67.558 397.846 67.6516 392.526L67.6827 391.074C67.8259 385.401 67.7075 379.736 67.5391 374.062C67.5193 373.371 67.4847 372.679 67.445 371.984C67.6724 371.749 67.8363 371.471 67.9051 371.201L67.9947 370.845C68.2176 369.927 67.965 368.853 67.1623 368.197C66.8161 364.332 66.3605 360.471 66.2367 356.61C66.2268 356.293 65.7068 356.302 65.6766 356.61C65.3844 359.897 64.8005 363.193 64.2162 366.484C60.4574 363.832 57.6792 359.458 56.04 355.797C55.9211 355.532 55.4799 355.628 55.5497 355.915ZM144.483 202.258C143.859 204.762 142.625 207.01 140.971 209.102C140.184 210.102 139.288 211.032 138.213 211.81C137.291 212.475 136.241 212.91 135.261 213.488C133.835 213.292 132.345 213.767 131.344 214.688L131.502 213.341C131.552 212.906 130.73 212.819 130.636 213.24C126.303 232.423 122.352 251.618 118.931 270.94L117.432 279.472L116.021 287.483C113.679 300.831 111.413 314.174 109.707 327.619C107.434 345.563 105.523 363.554 104.127 381.57C102.725 399.713 101.863 417.869 101.249 436.047C101.096 440.63 100.932 445.208 100.774 449.79L99.7161 444.311C98.6604 438.832 97.6251 433.347 96.7378 427.843C93.5535 408.144 91.0075 388.305 89.765 368.436C88.6255 350.254 89.0068 331.711 94.276 313.998C95.6037 309.542 97.2281 305.155 99.1887 300.881C101.091 296.725 103.685 292.873 105.731 288.778C108.108 284.012 108.821 279.517 107.598 274.387C106.528 269.917 104.651 265.713 104.315 261.113C103.685 252.574 106.85 244.305 111.322 236.831C112.501 234.862 113.744 232.918 115.041 230.992C118.968 225.171 123.396 219.562 127.991 214.184C128.239 213.897 127.714 213.58 127.446 213.815C123.257 217.449 118.676 221.023 114.907 224.992C113.075 226.923 111.288 228.892 109.594 230.914C91.0125 233.64 75.0464 243.8 64.1321 257.218C51.7465 272.443 45.4818 290.769 40.846 308.816C35.6907 328.872 31.3426 349.111 26.7123 369.266C21.919 390.122 17.1499 410.978 12.3264 431.83C9.92955 442.181 7.53215 452.534 5.1407 462.89C3.9274 468.133 2.65419 473.363 1.32252 478.589C0.638617 481.268 -0.0943137 483.941 -0.728203 486.628C-1.44083 489.659 -0.777233 491.597 1.55974 493.824C2.42193 494.65 3.7838 494.637 4.85349 494.198L5.18788 494.059L5.51106 493.922C6.83468 493.351 7.87241 492.76 8.69594 491.489C9.6027 490.093 9.74631 488.546 10.0578 486.994C10.6328 484.137 11.2018 481.281 11.7763 478.42C12.6346 474.142 13.5679 469.876 14.5178 465.611L19.2838 444.297C20.5546 438.614 21.8274 432.932 23.1075 427.252C27.6785 406.939 32.2544 386.631 36.8298 366.323C41.2229 346.823 45.1104 327.189 50.1117 307.803L50.3961 306.71L50.6853 305.62C55.1575 288.907 61.4061 272.741 72.7441 258.578C81.47 247.687 93.5877 237.962 107.861 233.04C106.855 234.31 105.889 235.605 104.968 236.927C99.1837 245.222 94.9599 255.07 95.9504 264.948C96.4352 269.774 98.5251 274.517 98.3275 279.382C98.1442 283.704 95.0981 287.499 92.9934 291.26C88.215 299.782 84.7578 308.838 82.5293 318.128C78.0574 336.784 78.0722 355.98 79.6129 374.918C81.2867 395.505 84.4656 416.087 88.0857 436.473C89.9428 446.929 92.414 457.299 94.3062 467.738C95.2417 472.885 96.5149 478.02 97.6292 483.141L98.1602 485.588C98.4576 486.946 98.766 488.3 99.1224 489.639L99.3422 490.441V490.584C99.3521 491.572 99.6596 492.389 100.155 493.041C100.833 494.949 101.675 496.811 102.794 498.598C103.368 499.511 104.201 500.023 105.107 500.211C106.018 502.041 108.083 503.449 110.549 503.441L142.982 503.332C161.82 503.267 180.659 503.158 199.497 503.067C204.251 503.045 209 502.967 213.749 502.858C218.201 502.75 222.47 502.28 226.873 501.793C231.845 501.245 234.539 498.154 233.796 493.793C233.633 492.832 233.455 491.876 233.286 490.92C234.277 491.206 235.455 491.072 236.252 490.389L237 489.747C238.036 488.847 238.963 487.963 239.62 486.763C240.298 485.528 240.849 484.224 241.448 482.963C242.74 480.25 243.998 477.529 245.222 474.794C247.672 469.324 250.124 463.833 252.402 458.307C256.913 447.364 260.905 436.255 264.376 425.021C270.567 404.979 275.044 384.549 277.867 363.936L278.542 359.024L278.738 357.572C279.808 349.583 280.709 341.47 280.284 333.498C280.021 328.506 279.14 323.477 277.015 318.815C275.054 314.516 272.028 310.838 269.151 306.994L268.822 306.551L268.491 306.096C265.974 302.605 263.972 298.956 263.872 294.717C263.77 290.414 265.198 286.228 266.794 282.2L267.192 281.207L267.459 280.549C270.855 272.225 274.719 264.019 273.444 254.961C271.562 241.622 262.351 230.871 250.763 222.579C261.069 224.371 271.27 227.909 280.273 232.397C290.906 237.701 300.479 244.701 308.734 252.6C324.334 267.53 335.472 285.443 344.588 303.938C354.132 323.294 361.209 343.576 366.542 364.123C371.905 384.788 375.495 405.783 377.947 426.861C379.17 437.352 380.131 447.868 380.928 458.39C381.334 463.781 381.641 469.181 382.116 474.563C382.592 479.942 382.805 485.402 384.301 490.637C384.999 493.076 389.709 493.324 390.213 490.637C391.333 484.636 391.02 478.431 390.708 472.355L390.679 471.803C390.372 465.751 389.971 459.703 389.496 453.655C388.525 441.295 387.228 428.952 385.534 416.648C379.596 373.458 368.646 330.494 347.168 291.069C337.056 272.5 324.076 254.457 306.02 241.049C297.423 234.67 287.732 229.579 277.287 225.892C267.947 222.593 258.458 221.032 248.534 221.036C243.557 217.688 238.214 214.771 232.876 212.279C232.554 212.128 232.217 212.493 232.484 212.728C232.622 212.845 232.757 212.966 232.895 213.08C232.291 213.115 231.667 213.362 231.108 213.88C229.146 215.684 227.492 217.94 226.012 220.283C223.758 222.753 221.609 225.305 219.36 227.748C215.761 231.661 212.076 235.518 208.346 239.344C202.083 245.774 195.616 252.082 188.872 258.136L187.745 259.143C184.249 262.252 180.708 265.973 176.573 268.434L176.352 268.563C174.608 269.561 173.371 269.742 171.883 268.252C170.531 266.896 169.405 265.322 168.248 263.826L167.981 263.483C162.073 255.948 156.595 248.135 151.638 240.092C149.379 236.432 147.229 232.718 145.19 228.963L144.581 227.836C143.472 225.766 142.268 223.736 141.353 221.605C141.14 221.106 140.932 220.606 140.729 220.11C143.849 218.314 146.265 214.428 147.141 211.384C148.053 208.223 147.592 204.98 145.968 202.089C145.661 201.545 144.631 201.68 144.483 202.258ZM298.393 330.702C298.825 342.72 299.087 354.75 299.731 366.758L299.953 370.857C298.949 371.84 298.359 372.975 298.83 374.532C299.012 375.127 299.553 375.666 300.226 375.866L300.436 379.678C301.392 396.827 302.512 413.941 304.56 431.047C307.12 452.455 310.081 473.828 313.037 495.198C313.458 498.224 315.856 500.623 319.585 500.18C323.358 499.732 324.888 496.849 324.393 493.845C322.447 482.059 320.575 470.263 318.935 458.438L317.068 444.965C314.727 428.123 312.331 411.284 309.571 394.496C308.417 387.479 307.218 380.466 306.015 373.453L306.436 372.975C308.155 371.014 309.933 369.097 311.691 367.167C315.068 363.445 318.401 359.753 321.496 355.858C321.65 355.662 321.337 355.375 321.115 355.524C316.777 358.337 312.671 361.345 308.541 364.402L304.925 367.088C302.846 354.971 300.785 342.85 298.949 330.702C298.904 330.398 298.384 330.376 298.393 330.702ZM235.99 215.697C238.6 217.857 241.269 219.971 243.899 222.119L244.863 222.909L245.822 223.703C250.444 227.551 254.872 231.557 258.562 236.157C265.337 244.605 269.373 254.904 266.556 265.217C264.218 273.76 258.855 281.504 257.414 290.26C256.691 294.647 257.042 299.056 258.924 303.198C260.846 307.425 263.916 311.046 266.675 314.859C272.667 323.146 273.484 332.242 272.889 341.841C272.265 351.867 270.953 361.897 269.334 371.832C266.056 391.962 261.113 411.883 254.571 431.391C251.297 441.16 247.43 450.721 243.582 460.32C241.666 465.099 239.432 469.764 237.13 474.407C235.916 476.85 234.673 479.28 233.41 481.706C233.876 478.281 233.876 474.763 234.104 471.359C234.431 466.481 234.847 461.612 235.228 456.738C236.005 446.847 236.698 436.947 237.317 427.047C239.511 391.744 241.126 356.41 241.007 321.051C240.947 303.368 240.536 285.686 239.67 268.021C239.263 259.703 238.476 251.392 237.765 243.085L237.614 241.305C236.985 233.849 236.233 226.375 234.941 218.984C235.323 218.226 235.655 217.459 235.902 216.671L235.99 216.375L235.926 216.384C235.985 216.153 236.005 215.923 235.99 215.697ZM213.417 185.315C213.364 185.111 213.032 185.128 212.972 185.315C211.501 189.663 212.021 194.445 213.289 198.819C213.972 201.189 214.943 203.489 216.116 205.706L216.527 206.482C217.533 208.37 218.665 210.316 220.624 211.493C221.44 211.984 222.902 212.014 223.719 211.493L224.135 211.215C224.204 211.168 224.272 211.12 224.338 211.071C225.1 210.51 225.477 209.271 225.125 208.454C224.219 206.345 222.163 204.797 220.742 202.919C219.484 201.25 218.37 199.489 217.444 197.658C215.448 193.698 214.552 189.493 213.417 185.315Z" fill="black"/>
<path fill-rule="evenodd" clip-rule="evenodd" d="M222.283 20.7979L218.014 25.2636C220.378 26.7289 222.609 28.2012 224.707 29.6806L224.709 29.6761C214.988 24.0962 204.222 20.7979 192.592 20.7979C170.192 20.7979 124.691 37.7265 114.406 49.9371C109.301 55.9968 99.8157 74.5996 94.8953 94.8241C90.9419 111.074 85.0618 156.983 90.9419 174.234C98.4674 196.312 123.226 216.717 148.756 216.717C174.286 216.717 213.921 200.502 242.13 164.967C243.42 163.342 258.232 161.459 268.799 155.36L266.025 182.25L263.916 197.892L264.382 199.005C271.95 217.012 277.947 226.406 282.373 227.188C286.89 227.985 296.088 221.472 309.968 207.646L311.742 201.097C316.246 184.391 318.499 175.424 318.499 174.195L318.496 173.971C318.429 171.144 317.322 155.14 317.299 150.834L317.299 86.286C302.372 42.6272 288.127 20.7979 274.564 20.7979H222.283Z" fill="#FFDBB4"/>
<path fill-rule="evenodd" clip-rule="evenodd" d="M257.653 5.92967C253.264 4.43407 248.179 4.71667 244.013 6.96878C235.834 6.66009 227.7 10.8687 223.436 17.012C223.347 17.0989 223.252 17.1859 223.168 17.2728L222.264 18.1995C221.409 19.0845 220.506 20.0599 219.791 21.0671C223.294 21.1375 226.212 22.3935 228.249 24.9304C229.702 26.7406 226.373 28.4607 224.887 26.7486L224.835 26.686C223.612 25.163 221.766 24.5731 219.71 24.5422C219.12 24.5335 218.673 24.3348 218.356 24.0418C218.23 24.4457 218.118 24.8539 218.014 25.2639C207.665 21.7227 196.509 20.7849 185.397 21.6249C185.884 22.3188 186.291 23.0622 186.605 23.8435C186.96 24.7291 186.202 25.7461 185.224 25.9826C184.166 26.2382 183.21 25.6929 182.828 24.8503L182.793 24.7678C182.366 23.7035 181.668 22.7901 180.732 22.0818C175.501 22.7057 170.308 23.6979 165.241 24.977C159.151 26.5156 153.118 28.3934 147.219 30.5433C148.218 30.8881 149.081 31.4707 149.686 32.4433C150.892 34.3846 147.575 36.1235 146.317 34.2675L146.272 34.1989C146.149 33.9998 146.039 33.8802 145.959 33.812L145.931 33.7889L145.757 33.7184L145.432 33.6367L145.308 33.6098C145.198 33.5881 145.153 33.5894 144.864 33.5754C144.479 33.5563 144.094 33.558 143.709 33.5576C142.804 33.5571 142.226 33.1132 141.965 32.5454C139.054 33.7015 136.179 34.9188 133.356 36.194L132.685 36.4997C123.97 40.5055 115.715 45.7661 110.925 53.5066C110.608 54.0239 110.51 54.5891 110.589 55.1283C109.566 56.2065 108.578 57.3195 107.629 58.4499C104.733 61.9107 102.613 65.8453 100.607 69.7452C96.5692 77.5885 93.8512 85.6448 91.7312 94.0445C89.6798 102.14 88.0248 110.322 86.4874 118.505C84.783 127.596 83.3647 136.765 83.0677 145.987C82.5439 162.425 86.1964 178.959 96.6878 192.798C106.047 205.146 120.141 214.95 136.855 218.089C153.855 221.28 171.843 218.167 185.24 208.202C187.4 206.598 187.103 203.359 185.24 201.715C183.13 199.863 180.017 200.12 177.867 201.715C165.251 211.102 146.887 212.55 131.685 207.767C117.631 203.341 106.621 193.133 99.8654 181.668C91.6225 167.686 90.2333 151.625 91.4989 136.156C92.1903 127.661 93.6288 119.235 95.1114 110.822L96.0063 105.758C96.9826 100.273 98.0083 94.7956 99.346 89.3664L99.6592 88.1015C101.294 81.5543 103.209 74.8393 106.171 68.6844C107.723 65.454 109.59 62.3411 111.503 59.2673C111.874 58.6716 112.255 58.0673 112.645 57.4586C113.169 57.6195 113.767 57.6456 114.394 57.4717C119.796 55.9934 125.345 55.0022 130.993 54.6717C133.567 54.5204 136.144 54.497 138.718 54.5852C143.125 54.3596 147.654 54.7004 151.852 55.8891C152.263 55.5791 152.679 55.2756 153.095 54.9722C153.207 54.9643 153.32 54.9539 153.432 54.9343C154.503 54.7491 155.256 54.0796 155.71 53.234C155.734 53.1892 155.755 53.1444 155.775 53.0996C156.312 52.7383 156.854 52.3827 157.401 52.0318C158.733 52.3357 159.9 51.3605 160.214 50.2919C160.511 50.1158 160.812 49.9454 161.112 49.7728C161.347 49.8232 161.58 49.8649 161.807 49.8797C162.788 49.9419 163.735 49.8097 164.605 49.398C165.705 48.8767 166.408 48.0359 166.879 47.0807C168.543 47.1707 170.228 46.6955 171.715 45.8363C172.923 45.1394 173.848 44.1773 174.768 43.2169C185.975 38.8192 198.158 36.2227 210.369 35.5575C211.572 35.761 212.766 36.0032 213.946 36.2849C214.225 36.3518 214.621 36.4831 215.077 36.6405C212.355 36.351 209.597 36.3223 206.801 36.6766C193.53 38.3648 183.194 47.1063 174.299 55.3578C172.182 54.9817 170.044 57.3925 172.002 58.989L187.271 71.4369C186.896 72.829 188.711 74.2012 190.301 73.8668C192.966 73.3034 195.636 72.7556 198.308 72.2169C201.096 73.4034 204.6 73.2003 207.128 71.4804C207.246 71.4004 207.501 71.2726 207.723 71.1456C207.931 71.2965 208.21 71.4478 208.321 71.5121C209.22 72.0356 210.315 72.1895 211.365 72.0425C212.445 71.8917 213.42 71.4095 214.261 70.8091C214.796 70.4266 216.043 68.8308 216.737 68.7133L216.805 68.7066C216.342 68.7183 217.83 69.9352 218.23 70.1869C219.163 70.7726 220.194 71.0804 221.355 70.9682C223.378 70.7724 225.118 69.1502 226.107 67.6524L226.182 67.5375L226.213 67.4662L226.239 67.5433C226.244 67.5569 226.25 67.5715 226.256 67.5879C226.405 67.9405 226.87 68.3413 227.186 68.5879C228.088 69.2891 229.204 69.5974 230.396 69.4144C231.404 69.2599 232.253 68.7236 232.935 68.0747L233.041 67.9714C233.243 67.7711 234.572 66.2001 234.362 65.8236L234.338 65.7919L234.404 65.7797C235.212 65.9545 235.891 65.7792 236.388 65.4127C239.162 64.878 241.901 64.2549 244.551 63.4628C244.759 63.9758 244.962 64.4889 245.159 65.0062C243.712 65.7932 242.373 66.9149 241.142 67.7148C238.809 69.2278 236.477 70.7408 234.149 72.2582L224.927 78.2432L223.872 77.9941C222.525 77.6758 221.369 78.366 220.874 79.421L220.833 79.5123C220.637 79.9745 220.401 80.4019 220.123 80.811C217.818 80.7301 215.866 81.9753 215.235 83.7613C214.665 83.75 214.09 83.7692 213.502 83.8261C211.891 83.9817 210.806 85.0339 211.098 86.4787L211.12 86.5778L211.159 86.7386C210.225 87.0873 209.548 87.7608 209.398 88.779C209.148 89.1099 208.946 89.4699 208.817 89.8707C208.144 91.9507 209.454 94.5219 210.152 96.5144L210.206 96.6705C210.654 97.9801 211.118 99.2833 211.587 100.586L212.755 103.82C215.995 112.834 219.154 122.337 216.532 131.787C215.973 133.787 218.879 134.691 220.139 133.126C223.194 129.337 226.495 125.766 229.961 122.338L230.129 122.315C232.556 121.885 233.498 120.377 234.612 118.84C235.268 119.01 235.974 119.05 236.656 118.934C237.643 118.767 238.528 118.271 239.226 117.644C239.818 117.113 240.36 115.75 241.059 115.413C241.934 114.99 243.692 115.594 244.737 115.458C245.586 115.348 246.379 115.092 247.149 114.77C248.563 116.466 249.501 118.459 249.73 120.609C249.82 121.426 250.097 122.118 250.497 122.692C249.024 122.644 247.547 122.735 246.088 122.974C240.692 123.857 236.822 126.787 234.648 131.152C234.555 131.343 234.836 131.5 234.965 131.317C238.191 126.948 245.214 126.726 250.314 128.265C255.73 129.9 258.77 134.096 259.851 138.882C261.037 144.13 259.516 149.786 256.268 154.256C254.762 156.334 252.705 158.23 249.973 158.995C246.726 159.903 243.727 158.277 240.401 159.117C238.137 159.686 237.139 161.612 237.549 163.538C237.712 164.295 238.014 164.956 238.419 165.529C237.223 167.616 236.116 169.764 234.708 171.738C232.533 174.786 229.904 177.307 227.038 179.851C224.078 182.477 221.063 185.051 217.896 187.485C214.861 189.82 211.382 191.481 208.199 193.62C205.966 195.12 204.859 197.224 205.961 199.633C206.87 201.624 209.935 203.32 212.415 202.42C217.164 200.698 221.32 197.768 225.105 194.75C228.614 191.95 231.669 188.603 233.976 184.968C236.154 181.541 237.758 177.65 239.111 173.901L239.279 173.434C239.917 171.651 240.588 169.647 241.023 167.625C243.627 168.877 247.161 169.06 249.948 168.721C254.45 168.177 258.557 166.182 261.66 163.273C263.107 161.92 264.385 160.376 265.489 158.702C265.389 159.721 265.329 160.707 265.265 161.603C262.685 164.089 261.65 167.677 262.566 170.951C260.407 172.905 259.802 175.84 260.929 178.338C258.566 180.399 258.655 183.68 259.677 186.66C256.884 189.406 256.619 193.685 258.8 196.784L258.866 197.006C256.664 200.248 257.16 204.437 259.919 207.3C258.035 210.516 258.327 214.841 263.036 216.088C264.752 216.543 266.416 216.155 267.66 215.309C266.524 220.282 266.015 225.331 267.531 230.328C268.134 232.31 270.338 233.758 272.656 233.758C274.593 233.758 276.002 232.901 276.975 231.641C276.861 234.149 277.034 236.671 277.642 239.214C278.009 240.75 279.628 241.948 281.347 242.319C280.727 242.934 280.48 243.824 281.074 244.751C283.595 248.677 289.686 247.048 290.098 243.287C291.818 242.158 292.618 240.303 292.949 238.299C293.431 235.377 293.606 232.502 294.152 229.617L294.361 229.789L294.469 229.871L294.504 230.08C294.817 231.506 295.731 232.504 296.918 233.1C296.66 235.588 297.137 238.121 298.931 240.01C300.126 241.269 302.162 241.765 303.907 241.492C304.016 241.497 304.128 241.496 304.245 241.483C308.197 241.021 310.484 237.723 309.443 234.696C311.035 232.981 311.705 230.804 311.234 228.652C314.313 226.859 314.25 222.919 313.184 219.754C316.412 217.513 317.626 213.323 316.004 209.993C318.913 206.814 319.318 202.385 317.341 198.765C320.542 196.452 320.524 191.986 317.349 189.62C319.04 186.667 320.059 183.129 318.37 180.427C319.562 179.27 320.216 177.62 320.078 176.026C319.876 173.686 318.116 172.068 315.932 170.991L315.78 170.258C315.267 170.314 314.721 170.188 314.239 169.781C313.762 169.378 313.271 169.054 312.764 168.786C312.189 168.779 311.694 168.554 311.346 168.208C310.395 167.923 309.371 167.798 308.236 167.786C305.784 167.763 305.698 164.537 307.98 164.328C308.34 164.009 308.836 163.807 309.374 163.807L309.796 163.809C310.781 163.817 311.776 163.87 312.69 164.215C313.284 164.439 313.742 164.776 314.077 165.188C314.14 165.811 314.526 166.433 315.36 166.946C316.324 167.539 317.643 167.608 318.675 167.072C320.119 166.321 320.134 165.148 319.967 163.873C319.603 161.085 321.425 158.46 320.991 155.608C320.799 154.346 320.322 153.257 319.543 152.378C321.185 150.216 321.474 147.426 320.211 145.054C322.843 142.562 323.298 138.721 321.62 135.723C321.595 135.65 321.577 135.576 321.55 135.504C321.361 134.995 321.099 134.535 320.811 134.096C322.285 131.85 322.274 129.094 320.776 126.857C323.045 124.53 323.117 120.827 321.099 118.32C321.087 118.113 321.063 117.905 321.042 117.697C321.968 115.582 321.746 113.177 320.571 111.21C320.99 110.36 321.314 109.445 321.52 108.47C322.049 105.957 321.777 103.514 320.987 101.062C320.859 100.675 320.715 100.288 320.562 99.9009C320.536 98.2214 320.464 96.5492 320.368 94.8801C320.744 93.4672 320.804 91.9146 320.812 90.4731L320.815 89.5384C320.833 87.1597 321.022 83.6769 319.312 81.6549C320.41 79.4706 319.959 76.7185 318.127 74.9872C319.413 73.0416 319.682 70.6526 318.39 68.494C318.183 68.1466 317.942 67.8231 317.678 67.517C317.785 65.5401 317.312 63.5015 316.114 61.5368C315.337 60.2577 314.175 59.1503 312.793 58.2642C312.817 58.0021 312.831 57.7404 312.826 57.4825C312.802 56.3321 312.512 55.1769 312.024 54.0992C312.9 52.7835 313.306 51.3005 312.793 49.7023C312.22 47.8937 310.712 46.3372 308.83 45.459C308.678 43.7538 308.375 42.0586 307.943 40.3861C309.099 38.1196 308.178 35.1284 305.564 33.7932C305.905 31.982 305.597 30.1038 304.099 28.689C303.531 28.1529 302.862 27.7464 302.142 27.4769C302.489 25.6556 302.097 23.7609 300.666 22.2779C299.497 21.0671 297.764 20.3314 296.001 20.2232C295.322 17.0554 291.882 14.6868 288.252 14.8755C287.799 13.4808 286.715 12.2647 285.034 11.6482C284.603 11.4904 284.168 11.3865 283.735 11.3286C280.784 8.70959 276.39 6.93443 272.586 6.02532C268.771 5.11707 264.903 5.02915 261.627 6.08514L261.389 6.16445L261.122 6.13402C259.965 6.02098 258.809 5.95576 257.653 5.92967ZM286.646 220.591C287.665 220.312 288.802 220.922 289.078 221.806C289.37 222.74 288.72 223.665 287.697 223.945C286.423 224.295 285.084 224.382 283.756 224.383C282.688 224.384 281.779 223.583 281.779 222.644C281.779 221.7 282.684 220.906 283.756 220.905C284.836 220.904 285.634 220.869 286.646 220.591ZM295.711 202.123C297.235 202.124 298.541 202.444 299.671 203.383C300.424 204.01 300.443 205.22 299.671 205.843C298.891 206.472 297.76 206.509 296.96 205.91L296.806 205.788C296.787 205.773 296.773 205.762 296.761 205.752C296.697 205.715 296.632 205.678 296.564 205.647L296.693 205.721C296.791 205.783 296.563 205.681 296.436 205.633L296.396 205.619L296.383 205.616L296.28 205.609C296.091 205.6 295.901 205.601 295.711 205.601C294.677 205.6 293.687 204.802 293.734 203.862C293.783 202.92 294.603 202.122 295.711 202.123ZM266.961 191.089C264.821 189.935 266.732 186.982 268.878 188.046L268.956 188.086C270.056 188.68 271.409 188.599 272.655 188.6C275.199 188.601 275.203 192.079 272.655 192.078L272.234 192.076C270.407 192.064 268.559 191.952 266.961 191.089ZM283.8 178.394C285.416 178.127 287.227 177.888 288.928 178.051L289.211 178.082H289.734C290.189 178.082 290.629 178.243 290.982 178.496C291.542 178.7 292.071 178.974 292.555 179.342C294.481 180.811 291.674 183.262 289.759 181.802C289.653 181.721 289.529 181.654 289.392 181.599L289.287 181.56H287.172C286.98 181.56 286.793 181.525 286.61 181.474C285.924 181.557 285.284 181.676 284.851 181.748C282.364 182.16 281.299 178.808 283.8 178.394ZM285.605 145.013C288.704 143.748 292.135 143.757 295.001 145.513C297.05 146.768 295.147 149.729 293.08 148.56L293.006 148.516C292.749 148.359 292.485 148.227 292.218 148.108C290.763 148.478 289.299 148.495 287.892 148.04L287.709 147.978L287.6 148.016C285.307 148.951 283.297 145.954 285.605 145.013ZM251.864 139.563C254.994 139.254 255.019 134.904 251.864 135.215C245.202 135.873 239.157 138.478 234.73 142.953C232.67 145.034 236.062 148.078 238.159 146.09L238.224 146.027C241.744 142.469 246.495 140.092 251.864 139.563ZM286.93 117.228C287.626 117.161 288.321 117.127 289.004 117.156C290.646 117.226 292.645 118.189 291.925 119.93C291.347 121.325 289.453 121.38 288.518 120.636C288.129 120.645 287.741 120.667 287.354 120.702C286.322 120.795 285.299 120.969 284.282 121.145C281.796 121.575 280.732 118.223 283.231 117.791L284.335 117.598C284.708 117.534 285.083 117.472 285.461 117.414C285.687 117.316 285.929 117.249 286.187 117.232L286.318 117.228H286.93ZM306.572 90.2438L306.804 90.2161C310.142 89.8403 315.501 90.1861 315.906 93.9245C316.13 95.9949 312.73 96.1249 312.059 94.3545C309.594 93.9636 307.108 93.8889 304.66 94.1263C303.726 93.2915 303.719 91.6868 305.274 91.2863C305.493 90.7672 305.951 90.3225 306.572 90.2438ZM230.268 83.9296C231.039 83.3066 232.304 83.224 233.063 83.9296C233.501 84.3357 233.866 84.787 234.155 85.2835L234.347 85.6187C234.38 85.6744 234.413 85.7297 234.448 85.7843C234.513 85.8856 234.585 85.9821 234.656 86.0804L234.704 86.1215C234.722 86.1383 234.745 86.1587 234.771 86.1834C235.482 86.8447 235.573 87.9956 234.771 88.6429C234 89.266 232.735 89.3486 231.976 88.6429C231.539 88.2369 231.173 87.786 230.884 87.2891L230.692 86.9541C230.659 86.8985 230.626 86.8433 230.591 86.7886C230.527 86.6869 230.453 86.5904 230.383 86.4921L230.305 86.423C230.293 86.4128 230.281 86.4015 230.268 86.3891C229.556 85.7282 229.467 84.577 230.268 83.9296ZM270.803 79.4006C273.589 77.6641 276.901 77.5833 279.461 79.6723C281.309 81.1802 278.594 83.5961 276.731 82.1833L276.665 82.1318C276.598 82.0762 276.529 82.0275 276.461 81.981C276.127 82.2314 275.702 82.3901 275.217 82.3905C275.09 82.3908 274.963 82.3905 274.837 82.3929L274.647 82.3988L274.545 82.4062L274.532 82.4083L274.444 82.4416C274.281 82.5061 274.057 82.6057 274.364 82.4362C274.296 82.4679 274.231 82.5053 274.166 82.5418L274.053 82.6327C273.307 83.2527 272.018 83.3344 271.278 82.6488C269.968 82.2592 269.273 80.354 270.803 79.4006ZM243.573 73.703L243.522 73.689C241.08 73.0756 242.118 69.7187 244.573 70.3348C247.178 70.9891 248.422 73.1216 248.943 75.3059C249.162 76.2246 248.636 77.1859 247.562 77.4454C246.581 77.6824 245.351 77.1541 245.13 76.2307C244.976 75.5813 244.797 75.0304 244.515 74.5191L244.344 74.2272C244.265 74.0942 244.237 74.0721 243.967 73.8651C243.922 73.8303 243.716 73.7461 243.573 73.703ZM284.938 56.1856L285.32 56.109C287.7 55.6504 290.858 55.411 292.294 57.486C293.604 59.3764 290.3 61.0972 288.94 59.3103C288.919 59.3097 288.895 59.3099 288.867 59.3119L288.823 59.3164L288.213 59.2729C287.453 59.2681 286.726 59.3864 285.99 59.5399C283.516 60.0551 282.46 56.7021 284.938 56.1856ZM199.526 42.8147C197.725 41.23 200.519 38.7696 202.321 40.3556C203.746 41.6091 205.12 42.8712 206.046 44.4638C206.532 45.2994 206.294 46.3507 205.337 46.8433C204.454 47.2976 203.121 47.0585 202.632 46.2194C201.83 44.839 200.817 43.9512 199.526 42.8147ZM222.255 38.6548C224.035 39.5817 225.187 41.1087 225.886 42.876C226.237 43.7629 225.486 44.7781 224.505 45.0151C223.451 45.2699 222.488 44.7266 222.109 43.8829L222.074 43.8003C221.887 43.3277 221.587 42.7695 221.217 42.3482C220.901 41.9886 220.409 41.6286 220.039 41.5091C219.148 41.2213 218.516 40.5109 218.598 39.6813C220.064 40.1269 221.424 39.5909 222.255 38.6548ZM275.527 31.0898C277.322 29.6238 279.731 29.4294 281.907 30.3168C282.876 30.7116 283.119 31.9407 282.616 32.6963C282.035 33.5706 280.884 33.7167 279.912 33.3202C280.162 33.4219 279.711 33.2876 279.516 33.2385C279.491 33.2486 279.165 33.2356 279.052 33.237L278.917 33.2445C278.916 33.2453 278.949 33.2448 279.017 33.2428C278.922 33.2616 278.828 33.2842 278.736 33.3101L278.618 33.346C278.677 33.3351 278.41 33.4882 278.336 33.5391L278.322 33.5489C276.459 35.0701 273.657 32.6163 275.527 31.0898Z" fill="black"/>
<path fill-rule="evenodd" clip-rule="evenodd" d="M136.977 172.104C136.217 170.944 134.468 169.87 132.867 170.035C125.697 170.773 125.709 178.405 128.478 182.861C130.933 186.811 136.013 189.13 141.098 188.792C146.44 188.436 150.992 185.678 152.995 181.291C154.32 178.389 154.932 173.031 151.408 171.081C151.343 171.045 151.235 171.054 151.183 171.107C149.493 172.832 149.427 175.423 147.947 177.344C146.572 179.131 144.434 180.607 141.93 180.835C140.06 181.005 138.169 180.413 137.437 178.939C137.041 178.142 137.086 177.709 137.235 177.16L137.37 176.683C137.839 175.013 138.049 173.742 136.977 172.104ZM135.06 138.633C131.32 140.629 125.622 145.282 129.645 150.23C134.381 154.592 141.199 149.59 144.558 147.328C147.674 145.575 151.174 150.084 148.283 152.131C124.006 167.911 114.153 139.155 133.168 136.287C135.262 135.971 136.04 138.016 135.06 138.633ZM174.551 124.949C172.255 121.926 167.016 122.371 165.751 125.959C165.066 127.902 166.012 129.649 165.963 131.59C165.922 133.229 166.045 135.056 166.617 136.644C167.922 140.265 171.632 142.822 176.02 142.716C180.394 142.61 184.246 140.18 186.078 136.757C187.916 133.321 187.527 129.765 186.185 126.271C186.12 126.103 185.87 126.022 185.719 126.163C184.132 127.643 182.971 129.206 181.77 130.863L180.538 132.562C179.597 133.841 178.229 135.475 176.472 135.372L176.208 135.35C175.72 135.313 175.795 135.398 175.418 134.814C175.244 134.543 175.276 134.041 175.191 133.721L175.162 133.614L175.178 133.556C175.215 133.401 175.252 133.11 175.282 132.604L175.288 132.493C175.416 130.129 176.177 127.091 174.551 124.949ZM116.366 126.962C116.777 123.095 110.585 122.236 108.526 125.098C107.452 126.59 107.14 128.464 106.902 130.24L106.791 131.083C106.548 132.906 106.451 134.804 107.353 136.505C108.773 139.185 111.862 140.601 115.194 140.377C118.376 140.162 121.279 138.542 122.809 136.084C124.173 133.89 125.53 129.607 123.873 127.318C123.773 127.18 123.573 127.162 123.435 127.269C121.869 128.489 121.614 130.715 120.683 132.305C119.723 133.945 118.267 135.543 116.06 135.792C113.948 136.031 113.141 135.018 113.68 133.251C114.375 130.969 116.104 129.417 116.366 126.962ZM172.878 101.96L171.865 101.619C168.396 100.469 163.632 99.1387 160.811 101.616C159.071 103.143 158.74 105.393 159.982 107.257C161.487 109.514 164.186 109.57 166.793 109.903C169.758 110.281 172.773 111 175.534 112.025C178.643 113.18 181.529 114.62 184.356 116.229C187.043 117.757 189.721 120.255 192.938 120.725C193.069 120.745 193.218 120.695 193.252 120.569C193.983 117.808 191.953 115.091 190.141 112.937C187.949 110.329 185.293 108.189 182.325 106.27C179.46 104.417 176.187 103.079 172.878 101.96ZM109.852 111.776L109.543 111.728C107.439 111.42 105.532 111.491 103.946 112.954C102.736 114.07 102.269 115.517 102.846 116.992C103.379 118.354 104.569 119.737 106.297 120.022C112.13 120.985 118.592 120.826 124.454 120.097C127.136 119.763 129.843 119.354 132.455 118.71L133.657 118.404C135.838 117.857 138.335 117.285 139.919 115.877C140.489 115.371 140.161 114.647 139.479 114.412C136.715 113.462 132.926 113.968 129.978 113.893C126.549 113.807 123.115 113.582 119.702 113.271C116.368 112.966 113.141 112.305 109.852 111.776Z" fill="black"/>
</g>
<defs>
<clipPath id="clip0_1615_19">
<rect width="405" height="505" fill="white"/>
</clipPath>
</defs>
</svg>
