<svg width="406" height="505" viewBox="0 0 406 505" fill="none" xmlns="http://www.w3.org/2000/svg">
<g clip-path="url(#clip0_1615_14)">
<g clip-path="url(#clip1_1615_14)">
<path d="M72.9249 315.102H187.451V442.023H72.9249V315.102Z" fill="#FDEA6B"/>
<path fill-rule="evenodd" clip-rule="evenodd" d="M220.855 190.96C208.509 182.499 177.516 178.695 164.34 186.841C151.326 195.021 149.907 208.249 143.843 220.418C138.121 217.99 128.672 221.468 127.013 226.246C124.956 228.499 124.864 234.831 123.445 237.86C61.7098 246.704 52.3373 290.018 44.9066 339.192C35.0764 389.092 12.7609 438.882 22.4486 490.229C21.1863 491.873 20.191 493.471 19.2708 495.368C17.0658 498.745 19.906 503.524 24.3535 503.339C30.1103 502.884 35.8101 502.263 41.5939 502.069C57.6274 501.568 73.6755 501.628 89.715 501.811L91.9022 501.837C172.737 502.742 253.567 504.527 334.405 505C337.338 505.004 338.774 502.637 338.382 500.302C337.594 495.601 336.862 490.898 336.098 486.194C355.219 490.739 375.545 491.883 394.611 486.672C395.945 485.449 391.504 486.112 390.799 485.927C408.346 475.136 403.106 452.404 401.552 436.031C391.886 379.929 388.479 317.856 351.136 269.983C334.981 250.446 311.296 234.978 284.081 231.497L283.326 231.404C275.368 230.449 266.499 230.142 259.541 226.246C251.716 220.624 248.381 210.236 240.148 210.139C237.43 210.106 233.732 213.201 229.752 215.303C229.455 210.68 226.687 206.779 226.076 203.195L226.026 202.889C225.389 198.71 226.262 194.951 220.855 190.96ZM88.1807 340.675C105.53 329.828 150.347 335.278 151.373 335.885C153.632 337.223 154.604 337.341 155.826 339.077C157.032 339.221 158.238 339.371 159.442 339.525C161.858 340.235 160.068 342.909 157.277 341.955C158.955 348.469 154.016 353.102 152.049 359.543C151.411 361.634 152.026 365.395 152.049 367.531C151.859 370.256 148.512 373.473 149.07 376.207C151.053 385.923 161.814 395.402 157.277 404.825C154.271 410.147 145.231 412.861 139.221 414.67C126.769 418.971 105.072 414.508 97.8364 404.825C93.9773 399.66 89.5064 386.631 87.2054 382.59L86.6953 376.18C85.4376 360.244 84.3188 343.089 88.1807 340.675Z" fill="#D08B5B"/>
<path fill-rule="evenodd" clip-rule="evenodd" d="M240.79 210.168L235.825 212.91L206.99 225.738C201.399 227.147 198.604 228.835 198.604 230.803V250.839C198.604 253.521 193.358 259.598 182.866 269.07L173.173 260.374L173.39 259.236C174.313 254.33 174.774 251.048 174.774 249.39C174.774 247.608 165.291 240.841 146.325 229.089L138.027 222.059L138.912 219.638C133.796 219.855 128.248 222.691 127.013 226.246C124.956 228.5 124.864 234.831 123.445 237.861C61.7098 246.704 52.3373 290.019 44.9066 339.193C35.0764 389.092 12.7609 438.883 22.4486 490.23C21.1863 491.873 20.191 493.471 19.2708 495.369C17.0658 498.745 19.906 503.525 24.3535 503.34C30.1103 502.884 35.8101 502.263 41.5939 502.069C57.6274 501.568 73.6755 501.628 89.715 501.811L91.9022 501.837C172.737 502.743 253.567 504.527 334.405 505.001C337.338 505.004 338.774 502.637 338.382 500.302C337.594 495.601 336.862 490.898 336.098 486.195C355.219 490.74 375.545 491.883 394.611 486.673C395.945 485.45 391.504 486.113 390.799 485.927C408.346 475.136 403.106 452.405 401.552 436.032C391.886 379.93 388.479 317.856 351.136 269.983C334.981 250.446 311.296 234.978 284.081 231.498L283.326 231.405L282.565 231.316C274.807 230.427 266.278 230.019 259.541 226.246C251.922 220.773 248.56 210.781 240.79 210.168ZM171.696 327.775C174.524 327.775 180.317 331.727 189.073 339.633L189.844 339.954C200.429 344.378 207.441 348.216 210.881 351.468L211.003 351.585C214.478 354.94 221.359 363.86 231.646 378.347L246.542 386.275H252.179L256.192 412.471L246.542 431.175L224.685 424.55L189.073 416.102L168.637 397.444L157.11 393.961C158.508 397.598 159.015 401.216 157.277 404.826C154.271 410.148 145.231 412.862 139.221 414.671C126.769 418.972 105.072 414.509 97.8364 404.826C93.9773 399.661 89.5064 386.632 87.2054 382.591L86.5454 374.263C85.356 358.896 84.4733 342.993 88.1807 340.675C105.53 329.829 150.347 335.278 151.373 335.886C153.632 337.223 154.604 337.341 155.826 339.078L156.459 339.154L152.902 334.813L154.161 334.208C163.147 329.919 168.992 327.775 171.696 327.775ZM157.277 341.955C158.884 348.192 154.425 352.704 152.316 358.729L157.704 349.447L157.704 342.076C157.565 342.045 157.422 342.005 157.277 341.955Z" fill="#9DDADB"/>
<path fill-rule="evenodd" clip-rule="evenodd" d="M243.171 209.199C241.973 208.244 240.201 209.444 240.962 210.733C242.672 213.631 244.427 216.377 246.722 218.939C248.114 220.492 249.605 221.961 251.116 223.414C247.238 226.432 243.913 230.18 240.773 233.693C236.758 238.185 232.961 242.867 228.454 246.978C224.008 251.032 219.093 253.866 213.15 255.755L211.949 256.131C205.979 258.017 199.598 260.564 196.232 265.652C195.569 266.655 196.905 267.894 198.028 267.268C203.876 264.01 210.747 263.354 217.113 261.201C223.262 259.121 228.622 255.92 233.358 251.835C238.086 247.757 242.056 243.116 246.197 238.574C250.292 234.083 254.701 230.247 259.544 226.447C267.019 230.972 275.551 232.941 284.226 234.875L285.173 235.086C293.859 237.021 302.498 239.269 310.647 242.639C317.832 245.61 324.898 249.158 330.751 253.993C336.963 259.124 341.798 265.677 346.224 272.085C356.123 286.423 363.083 302.13 369.209 318.029C375.582 334.566 380.912 351.433 385.215 368.502C387.404 377.184 389.181 385.927 390.642 394.732C391.345 398.973 391.97 403.222 392.518 407.481C393.104 412.029 393.238 416.708 394.789 421.081C395.453 422.955 397.023 423.733 398.594 423.667L398.913 427.258C399.336 432.046 399.73 436.835 399.863 441.653C400.084 449.663 399.984 457.65 399.344 465.644L399.253 466.734C398.75 472.568 397.626 479.123 392.751 483.394C387.703 487.819 379.94 489.21 373.136 489.289C357.289 489.475 342.034 482.737 328.011 476.825C313.569 470.737 299.521 463.979 285.81 456.65C278.828 452.918 271.921 449.061 265.101 445.092C261.755 443.143 258.432 441.162 255.135 439.149C253.246 437.996 251.456 436.731 249.533 435.708C250.475 434.919 250.896 433.678 250.107 432.594C255.665 428.252 257.979 420.503 258.249 414.233C258.468 409.172 257.64 404.125 256.987 399.112C256.658 396.584 256.25 394.06 255.828 391.543C255.661 390.549 255.533 389.485 255.338 388.436C270.348 395.859 285.779 402.47 301.618 408.343C309.737 411.353 317.959 414.06 326.296 416.54L327.985 417.041C335.884 419.367 343.972 421.565 352.138 422.896C352.574 422.967 352.929 422.387 352.463 422.202C344.505 419.042 336.272 416.376 328.194 413.466L326.867 412.98C327.019 412.972 327.177 412.953 327.343 412.918C332.08 411.889 336.78 410.303 341.426 408.968C345.738 407.729 350.582 406.951 354.613 405.08C354.923 404.936 354.749 404.549 354.447 404.53C349.917 404.247 344.999 405.436 340.558 406.135L338.889 406.398C336.094 406.841 333.237 407.318 330.456 407.94C330.355 407.101 329.835 406.259 329.094 405.765C320.944 400.334 321.771 389.363 320.9 381.272L320.253 375.266C319.116 364.755 317.913 354.244 316.086 343.811C315.988 343.254 315.031 343.414 315.027 343.94C314.932 356.873 316.017 369.746 316.561 382.659L316.645 384.777C316.946 392.744 317.181 401.018 322.757 407.149C321.978 406.739 320.924 406.739 320.292 407.415C319.516 408.246 319.068 409.179 319.082 410.095C314.043 408.194 309.026 406.243 304.034 404.253C287.984 397.854 272.271 390.693 256.973 382.944C255.326 382.11 253.761 382.766 252.947 383.865L252.83 383.85C252.81 383.848 252.79 383.846 252.77 383.846L252.653 383.841C252.649 383.841 252.644 383.841 252.64 383.841C250.487 382.777 247.553 383.535 245.705 385.088C245.651 385.135 245.604 385.185 245.556 385.235C243.216 384.29 241.032 383.014 239.049 381.397C234.992 378.088 231.556 373.996 228.56 369.893C223.044 362.336 218.357 353.933 210.905 347.713C204.85 342.659 197.344 339.512 189.468 337.537C189.501 337.33 189.413 337.109 189.254 336.963C188.85 336.59 188.561 336.46 188.039 336.687C187.997 336.705 187.972 336.73 187.955 336.757L187.187 335.576C186.767 334.935 186.336 334.289 186.187 334.119C185.293 333.106 184.373 332.1 183.439 331.116C181.855 329.45 180.05 327.805 177.96 326.649C173.384 324.119 168.573 325.551 163.869 326.934C161.026 327.769 158.193 328.632 155.355 329.481L155.063 329.567C152.947 330.178 150.471 330.714 149.524 332.731C149.15 333.529 149.092 334.358 149.266 335.162C129.17 330.563 106.849 332.676 87.2379 338.075C86.4852 338.282 85.7336 338.839 85.575 339.571C83.328 349.941 82.3273 360.576 83.344 371.123C84.2212 380.227 86.4627 389.149 90.6867 397.484L90.9268 397.954C94.8965 405.679 101.188 415.201 110.797 417.622C116.599 419.084 123.015 418.222 128.933 417.954C134.684 417.693 140.562 417.656 146.258 416.842C151.331 416.117 155.776 414.071 158.912 410.359C161.616 407.156 163.04 403.285 164.207 399.435C164.741 399.588 165.272 399.75 165.794 399.934C167.998 400.709 169.866 401.959 171.554 403.431C175.119 406.538 177.885 410.312 181.615 413.277C184.992 415.961 188.84 418.048 192.967 419.653C201.52 422.979 210.695 424.308 219.741 426.071L220.372 426.194C227.183 427.539 234.135 429.191 240.146 432.382C240.263 433.321 240.739 434.205 241.501 434.784C240.441 435.68 239.992 437.099 240.924 438.43C243.526 442.147 248.009 444.262 252.033 446.639L252.295 446.794C256.254 449.156 260.247 451.471 264.273 453.739C272.458 458.351 280.813 462.708 289.286 466.874C302.915 473.575 316.836 479.895 331.009 485.628C330.159 489.394 330.469 493.278 329.83 497.07L329.732 497.611C329.459 499.018 329.828 500.195 330.905 501.115L331.019 501.209L331.017 501.196L331.118 501.279L331.152 501.305L331.14 501.297C331.265 501.399 331.393 501.494 331.523 501.576L331.689 501.672C332.727 502.24 334.062 502.233 335.124 501.732L335.246 501.672L335.45 501.567C336.853 500.841 337.821 499.041 337.239 497.611C335.808 494.097 335.267 490.346 333.946 486.809L334.994 487.23L336.376 487.772C351.318 493.587 367.916 498.484 384.197 494.52C391.39 492.768 398.114 489.062 401.713 483.021C405.255 477.078 405.756 470.176 405.944 463.564C406.176 455.404 405.69 447.119 404.494 439.029C403.691 433.599 402.721 428.065 401.223 422.691C401.993 422.079 402.559 421.202 402.709 420.116C403.416 414.983 402.179 409.646 401.422 404.539C400.682 399.554 399.865 394.578 398.941 389.617C397.075 379.599 394.907 369.602 392.383 359.701C387.891 342.08 381.959 324.772 374.817 307.878L374.192 306.407C367.593 290.965 359.952 275.853 349.312 262.288C344.222 255.798 338.842 249.913 331.65 245.237C324.913 240.855 317.313 237.7 309.47 235.288C301.619 232.875 293.549 231.258 285.337 230.252C276.997 229.23 268.193 228.604 260.413 225.525C261.397 223.937 260.552 221.794 258.896 220.809C253.322 217.494 248.167 213.183 243.171 209.199ZM64.728 353.322C64.4944 353.003 63.9398 353.205 64.0423 353.582C66.7534 363.578 69.2985 373.594 70.9604 383.78C73.9603 402.166 73.4085 420.791 73.1633 439.313L73.1509 440.271C73.0248 450.247 72.8498 460.224 72.4832 470.196C72.2982 475.236 71.9321 480.326 72.1311 485.368C72.2397 488.104 73.0499 490.691 73.3369 493.394C73.5885 495.758 73.3644 498.157 73.2389 500.524C73.1549 502.097 75.7354 502.03 75.911 500.524L76.1354 498.575C76.427 496.11 76.7875 493.659 77.6854 491.299C78.7651 488.46 79.2833 485.672 79.6578 482.692C80.2316 478.125 80.4867 473.512 80.7082 468.913L80.8596 465.732C81.7843 446.512 81.7519 427.201 80.2549 408.001L80.1455 406.63C78.6631 388.481 76.091 368.872 64.728 353.322ZM122.518 238.937C123.227 238.675 122.979 237.712 122.194 237.879L120.768 238.186C110.319 240.438 100.059 242.879 90.3052 247.07C80.5455 251.264 72.2826 257.525 65.7172 265.224C52.9543 280.189 47.6506 298.377 43.4636 316.547C38.8106 336.738 34.5741 357.002 29.8806 377.187L29.009 380.947C24.666 399.746 20.5656 418.556 17.5443 437.578L17.3273 438.958C14.2805 458.519 12.4479 478.757 15.7724 498.369C16.4301 502.249 23.6047 501.283 23.3241 497.449C22.5139 486.367 21.9338 475.343 22.4944 464.236C23.0555 453.127 24.2133 442.066 25.9392 431.055C27.3916 421.787 29.5567 412.636 31.4727 403.442L31.773 401.99C33.3774 394.171 35.0313 386.359 36.6817 378.547L39.1479 366.85C42.8442 349.337 46.6129 331.808 50.8713 314.404L51.124 313.38C55.2914 296.636 61.4352 279.097 73.9355 265.801C86.6209 252.307 104.78 245.511 122.518 238.937ZM168.612 416.535C168.307 415.924 167.24 415.991 166.912 416.535C165.626 418.67 165.484 421.394 165.241 423.804L165.215 424.052C164.906 426.992 164.632 429.943 164.465 432.893C164.147 438.491 163.995 444.082 164.015 449.688C164.035 455.433 164.163 461.171 164.507 466.907L164.601 468.444C164.915 473.429 165.442 478.989 168.074 483.347C169.03 484.931 171.633 484.466 172.187 482.863C174.002 477.617 173.07 471.397 172.604 466.024L172.243 461.832C171.885 457.639 171.543 453.444 171.272 449.246C170.901 443.503 170.595 437.755 170.301 432.009C170.205 430.142 170.102 428.275 169.992 426.409L169.824 423.61C169.681 421.269 169.693 418.7 168.612 416.535ZM372.732 423.97L371.929 423.272C369.462 421.099 366.344 417.753 362.697 417.96C361.243 418.043 360.316 419.13 360.617 420.417C361.262 423.17 364.382 424.598 366.628 426.279C369.088 428.119 371.407 430.087 373.722 432.073C375.775 433.834 377.75 435.645 379.677 437.513L380.398 438.216C381.089 438.894 386.008 442.899 385.476 443.938L385.447 443.985C385.299 444.183 385.546 444.457 385.792 444.387C387.916 443.783 387.783 442.145 386.98 440.484C385.437 437.294 382.734 434.343 380.374 431.619C378.021 428.901 375.473 426.37 372.732 423.97ZM160.914 343.968C162.557 340.474 168.609 340.547 172.045 340.756C180.696 341.282 190.058 343.252 197.756 346.892C205.737 350.665 211.113 356.71 215.923 363.395L216.148 363.709C220.837 370.268 225.353 378.032 232.694 382.542C236.434 384.839 240.8 386.937 245.337 387.846C245.649 388.339 246.153 388.729 246.815 388.871L247.122 388.934C248.415 389.191 250.422 389.475 252.156 389.305C252.145 390.068 252.154 390.826 252.132 391.549C252.071 393.622 252.045 395.703 252.045 397.777C252.044 402.123 252.304 406.477 252.102 410.822C251.924 414.665 251.32 418.68 249.27 422.116C247.766 424.636 245.781 426.304 243.385 427.897C237.491 424.664 230.826 422.693 224.061 421.212C215.88 419.42 207.504 418.224 199.509 415.795C195.661 414.625 191.962 413.094 188.61 411.015C185.053 408.808 182.336 405.821 179.54 402.899L179.103 402.446C176.25 399.501 173.137 396.683 169.105 395.087C165.633 393.711 161.056 393.466 158.02 391.338C156.432 390.225 156.299 388.609 156.132 386.955C158.077 387.205 160.135 386.804 162.073 386.6L163.077 386.493C164.91 386.298 166.7 386.082 168.504 385.662C168.839 385.585 168.839 385.13 168.504 385.052C166.372 384.557 164.259 384.346 162.073 384.115L161.56 384.057C159.582 383.824 157.504 383.472 155.564 383.864C155.216 382.672 154.713 381.534 154.008 380.394C153.018 378.793 151.145 376.978 150.892 375.108C150.817 374.55 150.961 373.891 151.254 373.397L151.355 373.229C151.478 373.03 151.623 372.831 151.836 372.707C151.86 372.731 151.91 372.76 152.019 372.79C153.511 373.213 154.814 372.556 155.505 371.542C158.439 371.87 161.641 371.76 164.393 371.869L167.175 371.99C170.148 372.113 173.255 372.167 176.049 371.626C176.439 371.551 176.557 370.967 176.166 370.816C172.732 369.494 168.566 369.073 164.889 368.565C162.836 368.281 160.767 368.065 158.708 367.815C157.337 367.649 155.881 367.374 154.461 367.308C150.898 363.317 152.818 357.021 157.775 355.303C159.581 356.017 161.205 355.602 163.178 355.449C165.147 355.297 167.122 355.194 169.099 355.201C173.062 355.217 177.261 356.155 181.185 355.751C181.823 355.685 182.416 354.921 181.781 354.455C178.778 352.249 174.473 351.53 170.66 351.06L169.87 350.964C168.592 350.814 167.037 350.594 165.425 350.463C165.06 349.823 164.406 349.339 163.424 349.219C163.132 349.183 162.838 349.161 162.545 349.139L162.549 349.113C160.153 349.009 160.257 345.366 160.914 343.968ZM324.985 412.121C325.028 412.18 325.074 412.236 325.123 412.29L325.2 412.369L324.805 412.225L324.985 412.121ZM119.094 336.16C129.181 335.185 139.283 335.391 149.4 335.652C150.209 338.034 153.026 340.064 155.755 340.141C153.617 343.068 153.397 347.031 154.896 350.136C151.713 351.276 148.972 353.324 147.307 356.24C144.999 360.283 145.301 364.782 147.583 368.519C145.636 370.105 144.487 372.681 144.602 375.108C144.73 377.815 146.523 380.128 148.013 382.369C149.623 384.793 149.677 386.928 150.172 389.642C150.895 393.616 153.873 396.025 157.704 397.53L157.501 398.251C156.513 401.712 155.284 405.363 152.461 407.893C148.829 411.148 143.195 411.118 138.396 411.324L138.165 411.334C133.771 411.532 129.379 411.764 124.987 411.988L121.693 412.153C116.636 412.404 111.779 412.434 107.651 409.425C100.91 404.514 96.2899 396.386 93.3653 389.191C87.2269 374.088 87.1534 357.514 89.971 341.785C99.4206 339.044 109.225 337.114 119.094 336.16ZM202.982 361.216L202.908 361.221C200.831 361.435 199.404 362.948 198.896 364.744C198.158 367.353 198.52 369.712 196.744 372.068C194.917 374.49 193.794 376.43 193.528 379.422C193.419 380.654 193.469 381.882 193.165 383.087L192.944 383.932C192.709 384.832 192.517 385.699 192.634 386.666C192.74 387.548 193.218 388.235 194.2 388.517C197.402 389.439 199.875 387.316 200.702 384.63C201.417 382.31 200.463 379.546 201.471 377.368C202.03 376.16 203.06 375.15 203.642 373.935C204.219 372.73 204.508 371.471 204.601 370.161C204.776 367.684 202.342 364.708 203.7 362.463C203.989 361.984 203.662 361.202 202.982 361.216ZM245.518 335.653C243.349 335.257 240.889 334.348 238.751 335.103C237.652 335.492 237.108 336.698 238.037 337.537C239.65 338.991 241.993 339.072 244.165 339.415L244.356 339.446C246.924 339.874 249.497 340.279 252.073 340.664C256.919 341.386 261.777 342.025 266.653 342.568C271.66 343.125 276.681 343.622 281.709 343.995L283.656 344.139C287.903 344.445 292.322 344.675 296.49 344.09C297.095 344.005 296.998 343.211 296.49 343.072C291.924 341.829 286.916 341.495 282.196 340.969C277.178 340.409 272.168 339.817 267.172 339.115C262.183 338.413 257.201 337.661 252.237 336.829C249.994 336.454 247.754 336.062 245.518 335.653ZM167.273 331.66C169.176 331.054 171.269 330.156 173.331 330.456C176.887 330.975 180.052 334.093 182.866 336.146L181.453 335.899C174.222 334.648 164.646 333.3 158.575 337.438C158.56 337.414 158.548 337.39 158.53 337.366C158.04 336.697 157.473 336.174 156.853 335.601C156.794 335.551 156.737 335.499 156.68 335.446L156.346 335.126L157.111 334.887C158.748 334.367 160.689 333.694 160.995 333.596L161.017 333.589C163.105 332.952 165.195 332.323 167.273 331.66ZM226.687 195.254C226.985 191.81 221.028 191.838 220.733 195.254C220.089 202.712 221.954 210.099 225.968 216.637C225.998 216.685 226.03 216.727 226.061 216.772C223.55 217.948 221.011 219.076 218.416 220.084C215.096 221.374 211.713 222.549 208.27 223.545C205.155 224.447 201.317 224.803 198.699 226.68C193.177 230.637 195.252 238.849 196.314 244.172L196.48 245.012C197.008 247.751 197.391 250.562 196.108 253.191C194.737 255.999 191.966 258.082 189.494 260.091L188.995 260.498C186.805 262.294 184.303 264.475 182.696 266.909C181.23 264.181 179.231 261.951 177.118 259.441C175.61 257.65 176.683 257.059 177.766 255.31C178.809 253.625 179.318 251.83 178.992 249.909C178.39 246.36 175.239 243.797 172.102 241.871C168.398 239.598 164.264 237.914 160.434 235.799C152.565 231.454 144.902 226.486 137.998 220.968C137.808 220.816 137.478 221.016 137.63 221.224C143.084 228.689 149.479 235.14 157.338 240.616C160.525 242.836 163.873 244.678 167.243 246.614L168.212 247.173C169.565 247.962 171.253 249.017 171.864 250.36C172.48 251.71 171.167 252.73 170.461 253.849C168.217 257.402 169.299 260.717 171.959 263.731L172.083 263.87C174.727 266.801 176.73 269.528 177.689 273.273C179.748 281.319 176.88 289.7 173.878 297.254L173.759 297.551C172.135 301.623 170.409 305.664 168.999 309.801L168.61 310.945C167.332 314.751 166.285 318.505 167.719 322.417C168.207 323.748 170.224 324.063 171.062 322.81C174.017 318.393 174.753 313.078 176.606 308.222C178.411 303.489 180.484 298.841 182.228 294.089C184.474 287.97 185.976 281.384 185.161 274.966C185.185 274.928 185.211 274.893 185.231 274.854L185.803 273.728C187.362 270.681 188.867 268.021 191.702 265.592C194.658 263.058 197.868 260.816 200.194 257.749C205.248 251.087 202.122 243.677 201.512 236.393L201.442 235.5C201.331 233.987 201.27 231.932 202.368 230.885C203.603 229.707 206.499 229.406 208.137 228.885C212.371 227.536 216.543 225.965 220.517 224.078C224.3 222.283 227.964 220.299 231.376 217.975L233.106 216.804C235.834 214.951 238.663 212.928 240.492 210.406C240.703 210.116 240.344 209.647 239.962 209.786C236.909 210.901 234.12 212.674 231.264 214.217C231.22 214.123 231.168 214.028 231.11 213.933C227.576 208.177 226.123 201.801 226.687 195.254ZM129.174 234.688C127.957 231.686 122.414 231.918 122.635 235.484C122.805 238.224 124.097 240.697 125.279 243.185L125.405 243.452C126.625 246.044 128.035 248.477 129.721 250.853C132.943 255.394 136.718 259.608 140.749 263.586C144.404 267.192 149.201 269.397 154.729 269.03C157.058 268.876 159.409 268.342 161.45 267.296C163.874 266.052 166.506 262.316 169.599 263.221C169.898 263.308 170.177 262.914 169.919 262.727C166.348 260.14 162.296 264.152 158.878 265.119C153.727 266.575 148.441 264.965 145.126 261.217C141.665 257.305 138.479 252.924 135.57 248.664C134.093 246.501 132.745 244.256 131.581 241.942C130.406 239.607 130.139 237.069 129.174 234.688ZM137.476 216.216C137.626 215.801 137.054 215.407 136.649 215.644C134.303 217.018 132.27 218.834 130.106 220.426C127.705 222.192 125.287 223.922 122.831 225.626C119.25 228.11 123.403 232.682 126.555 229.969C130.868 226.257 135.591 221.404 137.476 216.216ZM150.356 201.687C149.403 198.38 143.766 199.744 144.588 203.013L144.615 203.112C146.171 208.512 143.955 214.009 139.224 217.509L139.05 217.636C136.057 219.792 140.297 223.56 143.26 221.425C149.729 216.766 152.42 208.851 150.356 201.687Z" fill="black"/>
<path fill-rule="evenodd" clip-rule="evenodd" d="M101.928 47.9656C103.036 45.4429 104.996 42.2722 108.273 42.1457C110.807 35.1583 117.108 28.0422 125.872 28.2312C151.598 4.50599 183.985 5.62442 217.846 10.6468C235.71 13.6348 253.849 19.4858 267.173 31.032C283.131 44.6252 289.345 68.3436 276.848 85.5324C287.649 90.7519 287.858 103.138 283.239 112.076C288.791 115.538 289.129 123.942 282.877 126.583C283.209 127.811 282.974 129.08 282.341 130.171C285.44 132.498 289.475 134.217 292.81 135.695C294.284 136.348 295.134 137.414 295.488 138.616C306.439 145.096 333.746 160.93 333.421 173.533C333.582 180.107 328.174 184.434 321.602 186.157C325.513 193.207 328.48 201.441 324.737 209.045C323.703 211.343 315.951 218.096 315.561 218.22C314.879 218.748 303.759 214.143 298.354 211.795C297.306 217.943 290.016 221.164 283.732 219.057C277.774 217.438 274.112 212.889 270.354 208.751C265.366 218.564 250.69 218.677 241.205 214.446C232.686 210.897 226.211 204.393 222.604 196.555C203.449 205.011 181.038 207.476 160.228 204.098C158.892 206.23 155.936 207.661 153.302 206.837C142.236 203.837 130.001 203.668 120.62 196.794C101.068 184.138 99.4214 160.804 100.785 140.914C101.994 121.082 100.936 101.086 104.933 81.4683C103.198 75.6925 100.313 70.5864 97.6428 65.1603C94.7423 59.4704 94.8031 51.0122 101.928 47.9656Z" fill="#D08B5B"/>
<path fill-rule="evenodd" clip-rule="evenodd" d="M190.694 8.60107L189.934 8.60377C188.678 8.61124 187.423 8.63363 186.172 8.67082C179.559 8.86708 172.663 9.6407 164.899 10.9649L163.718 11.1695C161.787 11.5104 160.057 11.8526 157.298 12.4339L151.822 13.5977C149.033 14.1837 146.981 14.5891 145.088 14.9152L144.84 14.9575C135.111 19.1629 128.675 22.649 125.533 25.4158L125.063 25.8331L124.863 26.0136L122.814 26.0719L122.794 26.3052L122.776 26.3076C120.742 26.593 118.901 27.5434 117.19 29.0229L117.007 29.1834L116.831 29.3424C115.497 30.5656 114.434 31.8691 112.969 33.9349L112.637 34.4069L112.041 35.2591L111.559 35.9434C111.245 36.391 110.944 36.8338 110.655 37.2725L110.37 37.7099L110.165 38.0314L104.874 40.8147C104.112 41.2157 103.418 41.7347 102.783 42.3563L102.612 42.5283L102.443 42.7054L101.001 44.2523L101.292 44.5251L101.151 44.6918L100.9 45.0027L100.654 45.3178L100.415 45.637L100.312 45.7773L100.157 46.0802L100.081 46.2315L100.021 46.356L99.8402 46.4398L99.4727 47.0379C97.5653 50.1414 96.5381 53.666 96.4685 57.2879C96.4205 59.7861 96.7623 62.055 97.5736 64.2437C98.135 65.757 98.8873 66.9462 100.188 68.5835L101.216 69.8548L101.426 70.1171L101.676 70.4363C101.716 70.4875 101.755 70.5379 101.793 70.5879C103.465 72.7709 117.749 76.903 126.528 77.1028L126.793 77.1076L127.13 77.1106C127.968 77.1139 128.778 77.0868 129.558 77.028C132.935 76.7733 136.093 76.1324 139.761 75.0843L140.522 74.8625L144.564 73.6381C144.692 73.5997 144.796 73.569 144.868 73.5484L145.237 73.4443C146.127 73.1981 146.774 73.0566 147.215 73.0053L147.305 72.9955L147.314 73.1462L147.317 73.2883L147.316 73.4039C147.29 75.0814 148.42 76.3043 150.172 77.0835C151.288 77.5798 152.726 77.9342 154.531 78.2002L154.819 78.2415C157.769 78.6525 161.287 78.828 167.172 78.9483C167.396 78.9529 167.622 78.9503 167.85 78.9409C169.113 78.8888 170.106 78.6945 171.952 78.2166L172.825 77.9907L173.298 77.8728C174.176 77.6589 174.665 77.5735 175.127 77.5502L175.261 77.5451L175.395 77.5431C175.949 77.5424 176.35 77.6538 176.745 77.9252L176.947 78.0708L179.66 80.1207C180.013 80.3859 180.33 80.6211 180.562 80.7879L180.656 80.8551C184.38 83.4882 187.931 84.9924 192.113 85.1354L192.393 85.143L192.685 85.1459C192.897 85.1463 193.11 85.1428 193.324 85.1355C195.086 85.075 196.914 84.4862 199.411 83.3508L199.928 83.1121L200.29 82.9417C200.475 82.854 200.668 82.7617 200.877 82.6608L202.74 81.762L203.692 81.3135C204.829 80.7861 205.463 80.5315 205.89 80.4266L205.96 80.41L206 80.4447C206.988 81.3146 207.835 82.4093 208.747 83.9205L208.885 84.1503L209.084 84.4928L210.38 86.8189L210.625 87.2516C211.587 88.9306 212.348 90.0037 213.343 90.9452C214.788 92.3116 216.539 93.1044 218.683 93.2317L218.898 93.2422L219.154 93.2478C220.164 93.2567 221.234 93.1169 222.394 92.8263L222.664 92.7565L222.926 92.6839C224.655 92.1916 227.387 92.4981 229.557 93.5368C231.914 94.665 233.212 96.3863 233.155 98.5861C233.126 99.6788 232.987 100.85 232.742 102.12L232.672 102.469C232.351 104.038 231.915 105.613 231.243 107.713L229.798 112.107L229.635 112.62L229.472 113.148C229.237 113.916 229.05 114.586 228.896 115.216C228.307 117.626 228.208 119.436 228.799 120.978C231.405 127.777 235.926 131.388 241.072 131.541L241.25 131.545L241.47 131.545C245.424 131.507 249.007 129.183 248.963 126.173C248.959 125.858 248.893 125.564 248.777 125.298L248.724 125.186L248.699 125.138L248.739 125.048C249.955 122.425 252.765 120.51 256.065 120.134L256.252 120.115L256.437 120.099C256.618 120.085 256.799 120.075 256.97 120.07L257.138 120.066L257.339 120.064C261.737 120.07 266.089 122.711 269.512 127.03C270.226 127.931 270.889 128.914 271.484 129.953L271.68 130.301L272.632 132.057L273.275 133.756C276.817 143.108 275.024 152.894 268.109 157.953L267.898 158.105C265.407 159.867 262.477 160.938 259.35 161.226C258.99 161.259 258.628 161.28 258.279 161.288L258.02 161.292L257.723 161.292C256.704 161.28 255.729 161.165 254.854 160.952C254.14 160.778 253.643 160.567 253.297 160.298C253.206 160.228 253.133 160.164 253.069 160.1L253.016 160.043L252.996 160.018L248.271 160.65C247.467 165.252 245.145 170.02 241.367 175.488L241.129 175.83L240.714 176.42L240.292 177.01C235.847 183.175 230.89 188.367 225.441 192.351L225.061 192.627L224.55 192.992L224.081 193.323C223.171 193.96 222.412 194.456 221.653 194.899L221.463 195.008L219.671 196.032L220.503 197.792C222.444 201.898 225.122 205.63 228.424 208.808L228.735 209.105L231.03 211.239L232.794 209.212C232.808 209.197 232.847 209.178 232.894 209.17L232.926 209.166H232.944L232.968 209.169L232.997 209.175L233.025 209.187C234.346 209.833 235.072 210.327 236.114 211.293L236.266 211.434L236.442 211.602L236.684 211.829C237.767 212.83 238.925 213.683 240.186 214.392C243.1 216.03 246.334 216.94 249.683 217.022L249.998 217.027L250.314 217.027C250.428 217.026 250.541 217.024 250.655 217.022C257.643 216.847 263.904 212.81 266.982 206.893C267.104 206.658 267.216 206.581 267.423 206.566L267.482 206.563L267.556 206.562C268.069 206.565 268.698 206.841 269.049 207.211L269.111 207.281L270.29 208.709L270.741 209.247C274.943 214.223 278.393 216.944 283.027 217.77C283.392 217.835 283.778 217.875 284.188 217.891L284.436 217.901H284.582C286.575 217.905 288.871 217.385 290.661 216.468C293.029 215.255 294.493 213.39 294.307 211.078L294.293 210.93L294.261 210.683C294.106 209.449 295.201 208.778 296.039 209.384L296.096 209.427L296.165 209.484C299.618 212.404 303.589 214.644 307.865 216.027L308.244 216.147L308.806 216.32C311.503 217.14 313.405 217.547 315.407 217.579C317.141 217.606 318.582 217.042 319.624 215.959C320.319 215.236 320.744 214.432 321.168 213.26L321.239 213.061L321.394 212.605L321.49 212.309C322.731 208.371 322.758 204.161 321.783 199.516C321.056 196.046 319.897 192.693 317.949 187.995L317.571 187.089L316.791 185.241C316.712 185.056 317.181 184.408 317.471 184.336L317.505 184.33L317.77 184.355C317.956 184.371 318.143 184.382 318.334 184.389L318.626 184.395H318.817C325.145 184.337 329.978 178.741 329.935 172.813C329.885 167.26 326.788 162.485 320.875 156.817L320.362 156.329L319.806 155.81L319.257 155.303C314.003 150.479 308.632 146.267 303.039 142.656L302.576 142.358L302.06 142.03C300.177 140.838 298.345 139.758 295.811 138.337L294.319 137.506L288.273 131.072C288.128 130.998 287.985 130.924 287.844 130.85L287.768 128.618L281.942 128.726C283.42 128.042 284.645 127.212 285.64 126.149C288.946 122.613 288.531 117.701 284.511 115.288L284.369 115.205L282.675 114.261L281.288 115.358C280.08 116.314 278.799 116.947 277.463 117.24L277.251 117.283L276.206 117.483L276.002 117.78L275.885 117.626C275.885 117.611 275.889 117.596 275.894 117.581L275.905 117.559L275.927 117.528L276.058 117.382L276.204 117.226C276.669 116.732 277.191 116.254 278.139 115.431L278.804 114.854L279.322 114.4C280.68 113.197 281.404 112.451 282.173 111.416C284.087 108.84 285.168 105.936 285.213 102.987C285.307 96.8534 281.077 91.0545 274.809 88.4078C274.589 88.3152 274.427 87.6564 274.691 87.221C280.76 77.1778 282.444 65.1391 279.395 53.9402C276.551 43.4916 269.473 34.269 259.341 27.2043C241.946 15.0756 217.817 8.82115 192.215 8.60575L191.439 8.60107H190.694Z" fill="#ECDCBF"/>
<path fill-rule="evenodd" clip-rule="evenodd" d="M283.714 132.144C282.561 131.883 281.943 133.28 282.921 133.841C289.131 137.403 295.546 140.585 301.546 144.461C307.252 148.146 312.522 152.343 317.436 156.856L317.981 157.358C322.424 161.481 327.345 166.725 327.395 172.806C327.433 177.532 323.392 182.692 317.754 182.071C315.63 181.837 313.678 184.267 314.419 186.019L315.199 187.866C318.336 195.339 321.527 203.807 319.05 211.67L318.959 211.95C318.359 213.75 317.727 215.341 315.41 215.305C313.26 215.271 311.022 214.617 309.009 213.993C304.831 212.697 301.045 210.536 297.832 207.819C294.99 205.415 291.358 207.857 291.741 210.912L291.755 211.009C292.278 214.437 286.223 216.029 283.47 215.539C278.035 214.569 274.16 209.658 271.073 205.914C269.589 204.115 265.986 203.406 264.682 205.914C262.099 210.88 256.775 214.592 250.546 214.748C247.31 214.829 244.206 213.998 241.466 212.458C240.347 211.829 239.347 211.081 238.43 210.234L238.202 210.02C236.845 208.722 235.908 208.032 234.174 207.185C232.466 206.35 230.256 207.385 230.267 209.206C230.281 211.566 231.047 213.134 232.851 214.845C234.344 216.263 236.118 217.507 237.982 218.501C241.729 220.497 246.184 221.621 250.546 221.491C257.422 221.286 263.985 218.195 268.239 213.388C272.583 218.072 277.972 222.376 284.974 222.26C290.216 222.174 295.101 219.713 297.442 215.9C300.746 217.954 304.373 219.56 308.252 220.61L308.598 220.702C314.09 222.143 320.409 222.716 323.944 217.799C327.263 213.183 327.511 206.791 326.75 201.515C326.071 196.802 324.463 192.326 322.616 187.911C327.872 186.495 331.952 182.043 333.353 177.243C335.473 169.985 331.361 162.946 326.276 157.554C320.753 151.696 313.802 146.741 306.799 142.404C299.814 138.079 291.989 134.015 283.714 132.144ZM104.118 75.3754C104.105 75.1737 103.739 75.1031 103.705 75.3245C101.292 91.1122 99.8954 106.868 98.7391 122.764C98.1527 130.817 97.487 138.862 96.7583 146.906C96.0592 154.619 94.8954 162.537 95.1584 170.281C95.5701 182.408 102.1 192.268 112.807 199.364C123.066 206.164 135.793 209.526 148.28 210.947C155.531 211.772 162.884 211.811 170.144 211.036C173.914 210.634 177.68 210.098 181.373 209.293L182.97 208.933C185.878 208.263 189.125 207.354 189.54 204.247C189.741 202.743 188.855 201.633 187.424 200.878C185.558 199.893 183.418 200.473 181.495 200.921C178.255 201.677 174.98 202.326 171.668 202.775C164.555 203.74 157.243 203.797 150.094 203.129C138.067 202.005 125.381 198.487 116.109 191.222C112.079 188.065 108.575 184.219 106.732 179.649C104.362 173.773 104.713 167.364 104.793 161.211C104.977 146.906 104.815 132.6 105.035 118.293C105.257 103.942 105.064 89.7048 104.118 75.3754ZM225.057 8.51925C211.004 5.25081 196.742 4.40152 182.308 5.38538C168.695 6.31253 153.188 9.05934 142.07 16.6102C141.53 16.9766 141.853 17.6702 142.521 17.5743C149.954 16.5058 157.199 14.5624 164.6 13.2765C171.719 12.0397 178.966 11.1112 186.214 10.8961C210.729 10.1674 238.007 15.1772 257.774 28.9607C267.043 35.4233 274.117 44.1134 276.932 54.4529C279.819 65.058 278.257 76.5268 272.46 86.1202C271.625 87.5014 271.969 89.6866 273.711 90.422C278.996 92.6535 282.76 97.5971 282.678 102.932C282.639 105.519 281.65 108.001 280.06 110.139C278.379 112.401 275.821 113.983 273.941 116.096C273.201 116.927 273.172 118.073 273.759 118.839C272.659 119.273 271.473 119.506 270.391 120.019C269.474 120.455 269.448 121.813 270.391 122.242C272.777 123.325 275.356 122.175 276.966 120.428C277.253 120.117 277.502 119.792 277.729 119.461C279.657 119.092 281.385 118.219 282.893 117.026C285.768 118.578 286.162 122.034 283.692 124.674C282.431 126.022 280.64 126.855 278.829 127.453L278.611 127.523C276.849 128.088 275.235 128.403 274.09 129.674C273.335 128.255 272.469 126.917 271.502 125.697C267.989 121.266 262.59 117.334 256.182 117.833C251.163 118.223 246.815 121.464 245.786 125.935C245.711 126.265 246.263 126.524 246.428 126.179C248.836 121.115 256.455 120.929 260.994 123.568C266.331 126.671 269.248 132.52 270.418 137.967C271.57 143.333 270.904 149.859 266.451 153.941C264.629 155.611 262.15 156.766 259.563 157.07C258.299 157.219 257.183 157.072 255.974 156.853L255.172 156.702C254.616 156.598 254.064 156.514 253.48 156.561L252.612 156.666L252.118 156.874C251.69 157.048 251.728 157 252.234 156.731C250.758 156.623 249.994 157.606 249.914 158.685C249.867 158.712 249.821 158.741 249.783 158.783C244.181 164.966 240.021 172.074 234.076 178.054L232.336 179.806C227.861 184.295 222.754 189.161 216.676 191.489L215.952 191.759C214.184 192.433 212.408 193.355 212.183 195.277C211.981 196.999 213.486 198.295 215.221 198.697C219.173 199.611 223.677 196.444 226.571 194.366C232.794 189.899 238.025 184.204 242.344 178.213L242.771 177.616C246.322 172.615 249.659 166.912 250.696 160.977L250.883 161.25C250.897 161.269 250.908 161.284 250.915 161.293C251.126 161.552 251.359 161.771 251.63 161.981C252.356 162.546 253.243 162.877 254.164 163.101C255.892 163.522 257.787 163.605 259.563 163.441C263.172 163.108 266.545 161.869 269.398 159.852C278.083 153.709 279.109 142.278 275.596 133.004C278.479 133.625 281.762 131.876 284.013 130.376C286.594 128.656 288.722 126.173 289.231 123.252C289.736 120.354 287.687 116.515 284.648 115.397C287.801 111.982 289.637 107.136 289.827 103.256C290.156 96.507 286.18 90.1276 280.076 86.4451C285.816 75.3503 286.922 62.4787 283.057 50.6984C275.387 27.322 249.694 14.2496 225.057 8.51925ZM246.926 186.129L246.854 185.924C246.242 184.116 245.453 180.52 242.458 181.889C239.597 183.196 241.424 187.067 242.424 188.951C243.621 191.205 245.689 193.013 248.466 193.497C250.724 193.891 253.205 193.385 254.785 191.811C255.245 191.352 255.505 190.849 255.778 190.294C255.885 190.078 255.933 189.93 255.953 189.833C255.979 189.939 256.052 190.097 256.241 190.282C257.502 191.524 258.692 192.97 259.607 194.44C259.824 194.787 260.506 194.544 260.334 194.163C259.268 191.813 259.447 188.179 257.072 186.479C254.979 184.98 253.012 186.16 251.905 187.905L251.848 187.996C250.23 190.646 247.651 188.129 246.926 186.129ZM269.697 177.637L269.479 177.363C267.24 174.604 263.465 171.286 259.688 173.852C258.487 174.668 258.442 176.029 259.688 176.839L260.159 177.143C261.81 178.198 263.453 179.194 264.665 180.707C265.982 182.352 267.164 184.094 268.935 185.384C272.067 187.666 277.128 188.116 279.845 185.04L280.112 184.735C280.34 184.471 280.6 184.153 280.812 183.836L280.977 184.042C280.993 184.062 281.008 184.082 281.022 184.101L281.06 184.153C282.177 185.762 283.588 187.088 285.345 188.134C288.685 190.121 292.448 190.397 296.227 189.345C296.596 189.242 296.497 188.795 296.139 188.765C291.662 188.388 287.3 185.52 285.479 181.826L285.273 181.411C284.536 179.942 283.711 178.546 281.89 177.969C280.118 177.407 278.258 178 277.042 179.209C276.026 180.22 275.765 182.228 273.932 181.785C271.924 181.3 270.795 179.033 269.697 177.637ZM282.52 153.098C281.529 152.418 279.976 153.147 279.703 154.132C278.466 158.59 283.604 163.844 288.542 163.982C289.813 164.017 291.035 163.74 292.161 163.209C293.035 162.798 294.068 161.747 295.027 161.572C296.265 161.348 297.362 162.835 298.234 163.598C299.315 164.546 300.385 165.425 301.597 166.233C302.081 166.555 302.832 166.013 302.628 165.518L302.218 164.533C300.734 161.026 298.179 155.906 293.396 157.362C291.053 158.074 289.29 160.479 286.822 158.575C284.847 157.051 284.662 154.565 282.52 153.098ZM261.421 135.149C256.963 130.534 246.483 132.972 244.496 138.586C244.057 139.826 244.515 141.438 245.589 142.316C247.004 143.472 249.022 143.822 250.74 142.915C252.218 142.135 252.825 140.859 253.911 139.764C255.505 138.159 257.672 137.268 259.905 136.63C260.464 136.895 260.983 137.243 261.449 137.662C261.688 137.877 262.139 137.583 261.927 137.33C261.64 136.986 261.288 136.662 260.888 136.364L261.081 136.313C261.669 136.165 261.796 135.538 261.421 135.149ZM232.447 84.1941C231.448 84.1955 230.284 85.0416 230.412 86.0295L230.45 86.3038C230.738 88.1846 231.408 89.2496 233.496 90.1234C235.267 90.8638 237.127 91.2729 239.069 91.4349C239.803 91.4961 240.581 91.4997 241.369 91.4471L241.535 92.3104C241.864 94.0371 242.169 95.765 242.227 97.5249C242.333 100.787 240.983 103.476 239.536 106.389C236.756 111.984 236.444 117.57 239.47 123.157C239.912 123.974 241.166 124.64 242.177 124.557C243.488 124.45 244.121 124.108 244.884 123.157C245.524 122.358 245.378 121.23 244.934 120.395L244.884 120.303C243.359 117.639 242.878 114.629 243.657 111.701C244.388 108.949 246.046 106.475 246.786 103.732C247.992 99.2626 246.708 94.8294 244.198 90.9952C246.092 90.5033 247.844 89.6265 249.013 88.2893L249.008 88.2875C249.454 87.8577 249.21 86.9598 248.427 87.0138L247.542 87.0783C245.009 87.2693 242.677 87.4679 240.116 86.8311C238.802 86.5043 237.669 85.9595 236.542 85.2999L236.3 85.1568C234.89 84.3116 234.108 84.1923 232.447 84.1941ZM226.385 51.1619C220.035 50.8365 214.613 54.6158 211.978 59.6467C209.115 65.1086 210.316 71.3756 212.843 76.7494L213.561 78.2534C214.818 80.8592 216.467 83.9581 219.041 85.3563C221.931 86.9271 224.43 85.1056 223.578 82.2103C223.07 80.486 221.695 79.1561 220.582 77.7329C219.544 76.4039 218.576 75.0284 217.726 73.5936C216.062 70.7797 214.82 67.6445 214.834 64.4206C214.857 58.5364 219.168 51.7929 226.385 51.8793C226.9 51.8847 226.892 51.1876 226.385 51.1619ZM194.269 41.6673C194.665 41.3964 194.311 40.7937 193.868 41.048C186.505 45.2715 181.007 53.205 179.9 60.9989C179.285 65.3232 179.754 69.9446 181.797 73.9354C182.968 76.2254 184.978 78.4114 187.789 79.0392C190.373 79.6158 193.036 78.2849 193.838 76.0102C194.149 75.1276 193.614 74.2045 192.806 73.7225C190.186 72.1603 188.077 70.189 186.842 67.5371C185.558 64.78 185.046 61.854 185.031 58.88C184.993 51.9151 188.075 45.9124 194.269 41.6673ZM104.319 44.686C104.659 44.3453 104.231 43.843 103.78 44.0564C98.4562 46.5813 95.0736 51.4178 94.1044 56.7147C93.1547 61.9005 94.4323 68.9603 98.8834 72.7108C101.395 74.8279 105.895 72.0123 103.807 69.2853C102.334 67.3621 100.743 65.7783 99.9 63.5059C99.1484 61.4783 98.8824 59.4336 98.9233 57.3029C99.0126 52.6546 100.854 48.1516 104.319 44.686ZM169.404 38.1922C160.309 37.8016 154.797 47.1654 153.534 54.1447C152.755 58.4568 153.341 62.8982 155.981 66.6383L156.137 66.856C158.315 69.8438 162.276 73.2838 166.543 71.8691C168.349 71.2709 168.83 69.526 167.616 68.2023C165.76 66.1761 162.89 65.3502 161.145 63.1867C159.186 60.7603 158.544 57.7205 158.658 54.7698L158.673 54.4439C158.977 49.0163 161.847 38.5988 169.404 38.7832C169.828 38.7931 169.823 38.2098 169.404 38.1922ZM140.955 36.6364C132.157 35.6224 126.8 44.956 125.148 51.3858C124.116 55.4054 123.89 59.8895 125.21 63.879L125.308 64.1632C126.383 67.1406 129.553 72.2422 133.691 70.7206C134.825 70.3038 135.983 69.1683 135.44 67.9441C134.746 66.3791 133.746 65.9732 132.412 64.9718C131.385 64.2008 130.668 63.094 130.14 62.004C128.734 59.0987 128.42 55.7047 128.613 52.574L128.639 52.2035C129.136 46.0884 132.813 36.9752 140.955 37.1428C141.327 37.1504 141.301 36.676 140.955 36.6364ZM124.849 27.8617C119.952 26.1802 115.941 30.4024 113.126 33.4156C109.6 37.1913 106.402 41.2586 104.594 45.9587C102.983 50.1467 102.7 54.8031 104.151 59.0662C104.869 61.1771 105.988 63.1345 107.515 64.8574L107.71 65.0747C109.299 66.8224 110.834 67.8964 113.437 67.2707C114.497 67.0155 114.944 66.0708 114.761 65.1679C114.369 63.2389 113.267 62.7379 111.839 61.3913C110.58 60.2036 109.645 58.7408 109.017 57.2029C107.722 54.0304 107.654 50.5931 108.524 47.3247C109.497 43.6657 111.413 40.2869 113.629 37.1207L114.107 36.4425C116.455 33.095 119.802 27.94 124.755 28.4832C125.18 28.53 125.185 27.9769 124.849 27.8617Z" fill="black"/>
<path fill-rule="evenodd" clip-rule="evenodd" d="M142.469 166.286C141.702 165.086 139.935 163.973 138.319 164.144C131.078 164.908 131.09 172.809 133.886 177.421C136.365 181.511 141.496 183.912 146.631 183.561C152.026 183.193 156.622 180.338 158.645 175.796C159.983 172.792 160.601 167.246 157.043 165.227C156.976 165.19 156.867 165.199 156.815 165.254C155.109 167.04 155.042 169.722 153.548 171.711C152.158 173.561 150 175.088 147.471 175.324C145.583 175.5 143.672 174.887 142.934 173.362C142.534 172.536 142.58 172.088 142.73 171.52L142.866 171.027C143.339 169.298 143.552 167.981 142.469 166.286ZM140.533 131.637C136.756 133.703 131.002 138.52 135.065 143.642C139.847 148.157 146.732 142.98 150.125 140.638C153.271 138.823 156.806 143.491 153.887 145.61C129.37 161.945 119.42 132.177 138.623 129.208C140.737 128.881 141.522 130.998 140.533 131.637ZM180.413 117.471C178.095 114.341 172.804 114.802 171.527 118.516C170.836 120.528 171.791 122.336 171.741 124.346C171.7 126.043 171.823 127.934 172.402 129.578C173.72 133.326 177.466 135.973 181.897 135.863C186.314 135.754 190.205 133.238 192.055 129.695C193.911 126.138 193.518 122.457 192.163 118.84C192.098 118.666 191.845 118.582 191.692 118.728C190.09 120.26 188.917 121.878 187.704 123.594L186.46 125.352C185.51 126.676 184.128 128.368 182.354 128.261L182.088 128.238C181.594 128.2 181.67 128.288 181.29 127.683C181.114 127.403 181.146 126.883 181.061 126.552L181.031 126.441L181.047 126.381C181.085 126.221 181.122 125.919 181.152 125.396L181.159 125.28C181.287 122.833 182.056 119.689 180.413 117.471ZM121.654 119.555C122.07 115.552 115.817 114.663 113.738 117.625C112.653 119.169 112.338 121.11 112.098 122.948L111.986 123.821C111.74 125.709 111.642 127.673 112.553 129.434C113.987 132.208 117.106 133.674 120.471 133.442C123.684 133.22 126.616 131.543 128.161 128.998C129.539 126.727 130.909 122.293 129.236 119.924C129.135 119.78 128.932 119.762 128.794 119.873C127.213 121.136 126.955 123.44 126.015 125.086C125.045 126.784 123.574 128.438 121.345 128.696C119.213 128.943 118.398 127.895 118.942 126.065C119.644 123.703 121.39 122.096 121.654 119.555ZM178.724 93.6727L177.702 93.3202C174.198 92.1291 169.387 90.7522 166.539 93.3163C164.781 94.8974 164.447 97.2265 165.701 99.156C167.221 101.493 169.947 101.551 172.579 101.895C175.574 102.287 178.619 103.031 181.406 104.092C184.547 105.288 187.461 106.779 190.316 108.444C193.03 110.026 195.734 112.611 198.982 113.099C199.114 113.119 199.265 113.067 199.299 112.936C200.037 110.078 197.987 107.266 196.158 105.036C193.944 102.337 191.262 100.121 188.265 98.1343C185.371 96.2166 182.066 94.8308 178.724 93.6727ZM115.076 103.834L114.764 103.785C112.639 103.466 110.714 103.54 109.112 105.054C107.89 106.209 107.419 107.707 108.002 109.234C108.539 110.644 109.742 112.075 111.487 112.37C117.377 113.368 123.902 113.203 129.823 112.448C132.531 112.102 135.264 111.679 137.903 111.012L139.117 110.695C141.319 110.129 143.841 109.538 145.441 108.08C146.016 107.556 145.684 106.806 144.996 106.564C142.204 105.58 138.378 106.103 135.401 106.026C131.939 105.937 128.47 105.703 125.024 105.382C121.656 105.067 118.398 104.382 115.076 103.834Z" fill="black"/>
<path fill-rule="evenodd" clip-rule="evenodd" d="M96.7967 133.759C101.388 138.921 119.36 144.65 128.925 138.43C138.491 132.21 142.271 127.876 143.549 120.104C143.686 119.275 145.351 118.724 146.055 119.312C149.996 122.607 152.547 126.803 155.075 131.01C157.926 135.755 160.734 140.529 165.915 143.741C175.091 148.167 191.692 148.798 196.596 146.845C205.991 143.105 213.423 135.105 215.113 124.096C216.259 120.841 217.334 118.871 218.338 118.186C219.766 117.212 227.644 116.344 228.507 116.2C244.06 113.603 263.731 111.947 277.583 121.084C279.458 122.104 285.876 125.935 285.972 124.993C286.038 121.303 281.391 112.951 270.823 108.976C257.754 104.062 238.327 103.774 227.072 104.859C226.506 104.913 224.577 104.487 224.441 104.434C207.39 97.7902 187.771 99.5546 169.527 102.347C166.913 102.803 143.509 108.019 134.2 104.859C118.808 99.2042 102.398 95.1075 85.777 96.7192C85.638 96.7327 83.5397 108.194 85.1742 108.976C86.475 109.599 88.6884 111.193 89.4747 112.066C90.1776 112.846 90.6206 113.816 90.5813 115.159C90.2652 122.932 92.7295 129.186 96.7967 133.759ZM160.08 126.823C158.129 124.283 157.513 118.575 158.33 114.412C158.744 112.303 159.547 110.625 160.555 109.79C161.225 109.235 161.99 108.973 162.824 109.012C163.281 109.033 163.776 109.15 164.3 109.405C171.399 105.949 179.998 104.705 188.149 105.063C194.638 105.062 199.267 106.44 202.407 108.586C206.185 111.168 207.887 114.879 207.985 118.904C208.102 123.68 205.922 128.905 202.346 133.039C198.923 136.996 194.24 139.93 189.161 140.607C183.394 141.637 177.517 140.64 172.408 138.203C167.168 135.702 162.741 131.686 160.08 126.823ZM103.178 129.518C99.889 126.02 97.702 121.47 97.3691 116.961C97.0662 112.858 98.2871 108.794 101.663 105.435C104.723 103.071 110.131 103.032 115.819 104.348C123.175 106.05 130.784 109.854 133.321 112.311C133.919 112.593 134.473 113.084 134.956 114.137L134.96 114.513C135.728 117.702 135.272 120.939 133.943 123.924C132.499 127.168 130.023 130.112 127.003 132.359C122.991 135.333 118.803 136.243 114.884 135.763C110.444 135.219 106.315 132.854 103.178 129.518Z" fill="white"/>
<path fill-rule="evenodd" clip-rule="evenodd" d="M134.729 103.595C119.143 97.8687 102.483 93.7411 85.616 95.3767C84.2212 94.8991 82.4898 95.3015 81.8717 97.0766C75.8638 113.547 89.2613 108.967 89.0813 115.124C87.677 149.646 139.236 155.541 145.033 120.301L145.14 120.358C153.481 127.363 155.238 138.761 165.063 144.852C184.884 157.898 212.982 147.562 216.591 124.338L216.669 124.024C217.881 119.284 219.329 118.109 225.304 118.132L226.247 117.964C241.77 115.211 262.442 112.738 276.739 122.203C279.849 123.831 279.995 128.015 282.622 129.833C285.501 130.336 287.274 127.22 287.47 125.064C287.926 103.567 245.181 102.02 226.038 103.865C225.672 103.524 224.891 103.567 224.628 103.991C207.315 97.2454 187.811 98.1788 169.273 101.016C157.79 103.016 146.449 107.573 134.729 103.595ZM87.1679 99.3454C96.5205 98.9246 105.171 99.385 114.351 101.408C119.19 102.459 122.902 103.787 127.533 105.384C156.419 116.901 159.751 96.4294 224.499 104.454C223.662 107.683 223.508 110.88 223.463 113.913C210.242 113.434 213.355 124.795 208.402 132.774L208.249 133.015C201.031 144.658 183.997 150.088 170.256 142.366C158.792 136.353 157.674 121.102 146.261 115.049C136.367 114.699 140.319 126.716 134.935 131.655C127.356 140.756 111.247 142.029 101.744 133.468C97.2851 129.349 94.9156 124.119 94.7846 118.501C94.536 114.911 95.2202 111.263 92.2045 108.738C90.0905 106.805 86.3347 107.45 85.9036 104.529C85.6295 102.802 86.4277 100.928 87.1679 99.3454ZM188.811 104.051C179.52 103.639 169.69 105.091 161.713 109.191C155.808 104.962 154.361 121.769 158.281 126.63C163.927 137.028 177.074 143.864 189.732 141.594C209.48 139.019 223.239 104.02 188.811 104.051ZM162.28 110.318L162.785 110.252C171.344 109.077 194.646 103.632 203.634 112.225C212.356 126.479 190.228 150.42 167.2 131.35C160.791 125.478 158.307 118.358 162.28 110.318ZM135.159 112.14C130.727 107.417 108.14 97.8515 100.266 103.99C85.8966 118.483 108.685 147.798 127.773 133.515C134.13 128.741 138.312 121.135 136.482 113.77L136.479 113.461C136.475 113.349 136.452 113.375 136.319 113.235C136.083 112.678 135.659 112.323 135.159 112.14ZM100.467 120.924C95.6208 97.2696 115.875 106.262 132.509 112.576C131.616 113.31 131.62 114.312 131.876 115.136C133.631 132.687 109.927 142.633 100.467 120.924ZM226.374 105.015C233.312 107.129 279.203 103.347 283.442 122.707C278.967 116.182 269.699 113.593 261.367 112.188C250.034 110.276 238.763 111.383 227.589 113.394L227.358 111.313C227.11 109.106 226.849 107.041 226.374 105.015Z" fill="black"/>
</g>
</g>
<defs>
<clipPath id="clip0_1615_14">
<rect width="406" height="505" fill="white"/>
</clipPath>
<clipPath id="clip1_1615_14">
<rect width="619" height="505" fill="white" transform="translate(-213)"/>
</clipPath>
</defs>
</svg>
