<svg width="1440" height="3902" viewBox="0 0 1440 3902" fill="none" xmlns="http://www.w3.org/2000/svg">
<g clip-path="url(#clip0_1615_12)">
<path d="M-423.855 -87L-372.067 -69.0775C-320.278 -51.825 -216.701 -14.975 -113.124 29.0775C-9.5462 73.8 94.0311 127.4 197.608 127.4C301.186 127.4 404.763 73.8 508.34 55.8775C611.918 38.625 715.495 55.375 819.072 73.8C922.65 92.225 1026.23 108.975 1129.8 82.6775C1233.38 55.375 1336.96 -14.975 1440.54 11.3225C1544.11 38.625 1647.69 162.575 1751.27 189.878C1854.85 216.175 1958.42 145.825 2010.21 109.477L2062 73.8V449H2010.21C1958.42 449 1854.85 449 1751.27 449C1647.69 449 1544.11 449 1440.54 449C1336.96 449 1233.38 449 1129.8 449C1026.23 449 922.65 449 819.072 449C715.495 449 611.918 449 508.34 449C404.763 449 301.186 449 197.608 449C94.0311 449 -9.5462 449 -113.124 449C-216.701 449 -320.278 449 -372.067 449H-423.855V-87Z" fill="#FBF1E6"/>
<path d="M1436 136.489H0V398.22H1436V136.489Z" fill="#FBF1E6"/>
</g>
<path d="M0 137H1440V3762H0V137Z" fill="#FBF1E6"/>
<g clip-path="url(#clip1_1615_12)">
<path d="M-512 3989L-460.211 3971.08C-408.423 3953.83 -304.845 3916.98 -201.268 3872.92C-97.6908 3828.2 5.88654 3774.6 109.464 3774.6C213.041 3774.6 316.618 3828.2 420.196 3846.12C523.773 3863.38 627.35 3846.62 730.928 3828.2C834.505 3809.78 938.082 3793.03 1041.66 3819.32C1145.24 3846.62 1248.81 3916.98 1352.39 3890.68C1455.97 3863.38 1559.55 3739.42 1663.12 3712.12C1766.7 3685.82 1870.28 3756.17 1922.07 3792.52L1973.86 3828.2V3453H1922.07C1870.28 3453 1766.7 3453 1663.12 3453C1559.55 3453 1455.97 3453 1352.39 3453C1248.81 3453 1145.24 3453 1041.66 3453C938.082 3453 834.505 3453 730.928 3453C627.35 3453 523.773 3453 420.196 3453C316.618 3453 213.041 3453 109.464 3453C5.88654 3453 -97.6908 3453 -201.268 3453C-304.845 3453 -408.423 3453 -460.211 3453H-512V3989Z" fill="#FBF1E6"/>
<path d="M1337 3762.52H-99V3495.06H1337V3762.52Z" fill="#FBF1E6"/>
</g>
<defs>
<clipPath id="clip0_1615_12">
<rect width="1440" height="137" fill="white"/>
</clipPath>
<clipPath id="clip1_1615_12">
<rect width="1440" height="140" fill="white" transform="translate(0 3762)"/>
</clipPath>
</defs>
</svg>
