<svg width="60" height="60" viewBox="0 0 60 60" fill="none" xmlns="http://www.w3.org/2000/svg">
<path d="M14.6388 7.91527C19.5652 3.43194 26.014 -0.125983 32.3091 0.193117C38.6135 0.477727 44.7642 4.63937 50.0593 9.79157C55.3545 14.9438 59.716 21.1026 59.4922 27.0308C59.234 32.9498 54.3123 38.6542 49.9027 44.2371C45.4587 49.8108 41.5174 55.2974 35.9334 57.8302C30.3586 60.3286 23.1067 59.864 16.5931 57.1946C10.0358 54.5504 4.2168 49.7014 2.03084 43.682C-0.145876 37.628 1.31042 30.4036 3.77038 24.1135C6.2396 17.7889 9.7124 12.3986 14.6388 7.91527Z" fill="#FFDBB4"/>
<path fill-rule="evenodd" clip-rule="evenodd" d="M29.6803 9.24377C34.9439 9.24377 40.3882 13.3589 42.3176 15.9848C44.5486 19.0212 46.3085 33.5973 45.4829 38.5433C44.6573 43.4893 40.5563 48.8801 33.437 48.8801C26.3178 48.8801 21.9852 47.9957 21.8115 46.711C21.6957 45.8546 20.1304 43.0428 17.1158 38.2756C14.0326 37.401 12.4849 35.919 12.4728 33.8297C12.4608 31.7404 13.287 30.3156 14.9512 29.5555C14.3578 21.3102 14.8083 16.1142 16.3028 13.9675C18.5445 10.7475 24.4167 9.24377 29.6803 9.24377Z" fill="#EDB98A"/>
<path fill-rule="evenodd" clip-rule="evenodd" d="M27.0004 8.00407L27.0943 8.00447C32.9181 8.04247 38.8413 10.7454 42.3061 15.4671L42.4103 15.6108C42.416 15.6183 42.5197 15.774 42.5442 15.8183C42.6878 16.0783 42.857 16.3215 42.9867 16.5858C43.0963 16.8102 43.1692 17.0609 43.2497 17.2999L43.2741 17.3712C43.4809 17.9678 43.6551 18.5699 43.8091 19.1823C44.1075 20.3744 44.3402 21.5852 44.5665 22.7932C45.3748 27.1189 45.9034 31.5063 46.1698 35.8994L46.2223 36.7828C46.2761 37.699 46.3167 38.6191 46.2147 39.5323C46.0968 40.5953 45.7938 41.593 45.3349 42.556C44.9121 43.4442 44.3671 44.267 43.7433 45.0234C43.4096 45.4283 43.0554 45.8219 42.6197 46.1182C42.273 46.3539 41.8678 46.5091 41.4776 46.6587C40.8427 47.2983 40.0278 47.7816 39.2315 48.1678C37.9189 48.8026 36.4959 49.1533 35.0563 49.329C33.5842 49.5075 32.0973 49.4646 30.6373 49.2094C29.2421 48.9663 27.7468 48.3445 26.8875 47.1599C26.8134 47.058 26.9514 46.9617 27.0423 47.0037C29.536 48.1678 32.3382 48.4717 35.0563 48.1042C36.3244 47.9331 37.5721 47.5797 38.73 47.0308C39.7071 46.568 40.5311 45.8948 41.4081 45.2852C41.5787 45.0562 41.751 44.8308 41.9477 44.6214L42.2544 44.297C42.4837 44.0533 42.7088 43.8063 42.9135 43.5396C43.5458 42.7178 44.0695 41.7856 44.4154 40.8048C45.088 38.8956 44.9061 36.8232 44.7872 34.8335L44.7769 34.6582C44.6545 32.5302 44.4551 30.4096 44.179 28.2965C43.9026 26.1807 43.5513 24.0732 43.1361 21.9807C42.9312 20.9494 42.7012 19.9247 42.4983 18.8934C42.3935 18.3614 42.3203 17.8219 42.2406 17.2843C42.1923 16.957 42.1932 16.6419 42.1923 16.3222C42.1831 16.3371 42.1719 16.3512 42.1608 16.3652C42.1942 16.4447 42.1711 16.5466 42.0895 16.5933C41.7808 16.771 41.4248 16.7111 41.0772 16.7121C40.7082 16.7139 40.3392 16.7149 39.9703 16.7158C39.586 16.7172 39.2018 16.7172 38.8175 16.7166L37.6648 16.7139L33.0539 16.6999C30.0342 16.6908 26.9633 16.8119 23.9534 16.5248L23.7236 16.5019C23.4871 16.4744 20.8178 16.1452 20.096 16.0602L20.074 16.0576C18.7548 15.9042 17.4543 15.677 16.1723 15.3367C16.5912 15.5059 16.9945 15.7341 17.4097 15.907C17.9456 16.1296 18.4953 16.324 19.0451 16.5101C20.1732 16.8925 21.3032 17.2637 22.4267 17.6583C22.7488 17.7712 23.4808 20.5545 23.6653 20.9948L23.6707 21.0074C23.7644 21.2196 23.8933 21.4524 23.8218 21.6937C23.6643 22.2266 22.829 22.6212 22.4147 22.9222L21.9887 23.2323L21.4316 23.6388C21.2031 23.8039 20.9922 23.9302 20.6932 23.8357C20.6923 23.8348 20.6914 23.8348 20.6905 23.8348C20.9464 25.0325 21.0706 28.9062 21.1086 29.5859C21.1419 30.1777 21.3143 30.936 21.0399 31.4755C20.975 31.6036 20.8064 31.7046 20.6626 31.6943C20.0359 31.6466 19.4094 31.5998 18.7827 31.5531C18.6148 31.54 18.4619 31.4437 18.4155 31.2717L18.4137 31.2623C18.3934 31.2679 18.3702 31.2642 18.3507 31.2436C18.3164 31.209 18.2812 31.1754 18.245 31.1426C17.42 30.4003 16.1296 30.217 15.1117 30.6032C14.5778 30.8051 13.9706 31.1454 13.5942 31.5868C13.1761 32.0767 13.0863 32.7611 13.0853 33.3866C13.0834 34.5927 13.5155 35.8138 14.397 36.6506C15.207 37.4188 16.2521 37.6423 17.3036 37.8622L17.4163 37.8858C17.6563 37.9362 17.7324 38.2971 17.5517 38.4486C18.0328 38.9236 18.4481 39.4902 18.8532 40.0128C19.3911 40.7062 19.9055 41.4271 20.406 42.1495L20.6475 42.499C21.5085 43.7382 22.7546 45.4452 22.2126 46.9944C22.1403 47.2029 21.8381 47.2777 21.7203 47.0589C21.3338 46.339 21.1178 45.5461 20.7507 44.8177C20.3902 44.1034 19.9415 43.4414 19.4964 42.7795L19.2397 42.3958C18.8124 41.7552 18.389 41.1076 17.9965 40.4476L17.7233 39.9907C17.4665 39.5592 17.2124 39.1133 17.0232 38.6496C15.7578 38.9572 14.3821 38.2728 13.4931 37.3612C12.3753 36.2131 11.8497 34.5217 11.9942 32.9313C12.0703 32.0991 12.3141 31.2941 12.9184 30.6957C12.9796 30.6359 13.0436 30.5788 13.1095 30.5218C13.0863 30.5097 13.0668 30.491 13.0575 30.4685C12.6524 29.498 12.5661 28.3414 12.5318 27.2961C12.4958 26.2153 12.519 25.1316 12.6004 24.0526C12.7498 22.0742 13.1038 20.1061 13.6657 18.2043C14.4971 15.3937 15.9257 12.6421 18.208 10.7562C20.6417 8.74477 23.9023 7.99887 27.0004 8.00407ZM14.8856 32.5872C15.2293 32.4299 15.7655 32.7101 16.0715 32.8887L16.0916 32.9004C16.9954 33.4305 17.6388 34.3337 17.9363 35.3342C18.1273 35.9793 17.0547 36.2364 16.9639 35.6044C16.8898 35.0892 16.7192 34.6068 16.4384 34.1757C16.3715 34.1982 16.3066 34.2272 16.2483 34.2646C16.0249 34.4104 15.895 34.661 15.5846 34.6236C15.3546 34.5965 15.1191 34.4357 15.1349 34.1701C15.16 33.7316 15.5103 33.5568 15.8859 33.5343C15.8323 33.4859 15.7782 33.4381 15.7228 33.3919L15.6622 33.3428C15.5935 33.2928 14.8589 32.7817 14.8378 32.9132L14.8373 32.921C14.8383 32.9733 14.7687 33.0033 14.7335 32.964C14.5917 32.8107 14.7234 32.662 14.8856 32.5872Z" fill="black"/>
<path fill-rule="evenodd" clip-rule="evenodd" d="M33.732 37.9509C34.2517 37.0906 35.3593 39.1982 35.477 39.5606C35.5813 39.8816 35.6501 40.2105 35.6851 40.5432C36.0879 40.6341 36.5063 40.6342 36.9191 40.5546C37.5327 40.4361 37.9077 40.1041 38.441 39.8191C38.8093 39.6221 39.2735 39.8531 39.465 40.1797C39.6903 40.5643 39.5468 40.9634 39.2505 41.25C38.6885 41.7936 37.5829 41.9185 36.8494 41.7741C36.4291 41.6914 36.044 41.5328 35.7038 41.3023C35.7016 41.3453 35.7001 41.3883 35.6967 41.4313L35.6902 41.5058C35.6338 42.1087 35.4692 42.8668 35.0039 43.259C34.2409 43.9025 33.2991 42.665 34.0406 42.0222L34.0636 42.0029C34.5244 41.6281 34.625 40.6226 34.6002 40.0687C34.5839 39.7072 34.5185 39.3411 34.4051 38.9968L34.3817 38.9282C34.3476 38.8309 33.9754 37.9084 33.8409 38.0258L33.8345 38.0325C33.779 38.0991 33.6894 38.0215 33.732 37.9509ZM37.8812 33.096C38.5827 33.5252 39.6515 34.5259 38.8969 35.5899C38.0086 36.528 36.7296 35.4524 36.0994 34.9659C35.515 34.5889 34.8584 35.5585 35.4006 35.9987C39.9547 39.3923 41.8029 33.2082 38.236 32.5914C37.8432 32.5235 37.6974 32.9633 37.8812 33.096ZM30.3904 29.1292C31.076 29.0068 31.7783 29.1784 32.3456 29.5821L32.3886 29.6132C32.9351 30.0155 33.5467 30.7219 33.233 31.4154C33.1072 31.6938 32.7302 31.7375 32.491 31.6113C32.0927 31.4011 32.0205 30.884 31.6652 30.5978C31.3738 30.3632 30.9814 30.2209 30.6061 30.2552C29.7244 30.3358 29.1821 31.211 28.9082 31.9653C28.8732 32.0618 28.7325 32.0992 28.6775 31.9957C28.0317 30.7809 29.1747 29.3463 30.3904 29.1292ZM41.3718 28.6707C42.685 28.5618 44.2222 29.9321 43.8764 31.3273C43.7106 31.9968 42.724 31.9776 42.5486 31.3273C42.452 30.9695 42.4617 30.6529 42.2058 30.3558C41.9945 30.1104 41.6944 29.9679 41.3718 29.9898C41.0161 30.014 40.6881 30.1928 40.4389 30.4442C40.2138 30.6712 40.0792 31.0034 39.846 31.2044C39.7886 31.2537 39.7118 31.2569 39.6551 31.2044C39.2538 30.832 39.4947 30.0567 39.7491 29.6679C40.1133 29.1116 40.7062 28.726 41.3718 28.6707ZM27.8895 26.6547C28.732 25.9041 30.2629 25.1792 31.3989 25.5486C32.052 25.761 32.3368 26.8202 31.6076 27.156C30.7633 27.5447 29.7898 27.3865 28.9304 27.7895C28.5695 27.9588 28.2301 28.1704 27.9788 28.4807C27.7808 28.7253 27.5794 29.0472 27.2931 29.1882C27.2179 29.2253 27.116 29.2262 27.0557 29.1574C26.4281 28.4429 27.3415 27.1429 27.8895 26.6547ZM39.9237 25.5114C40.4444 25.3643 41.022 25.3673 41.551 25.4597C42.0797 25.552 42.6166 25.7726 43.0483 26.0943L43.0984 26.132C43.5697 26.4894 44.1321 27.0095 44.1019 27.6427C44.0767 28.1714 43.5241 28.529 43.047 28.2519C42.658 28.0259 42.475 27.5732 42.1457 27.2718C41.874 27.023 41.5548 26.8268 41.2142 26.6894C40.836 26.5367 40.457 26.4651 40.0511 26.4583C39.7385 26.4531 39.424 26.5563 39.1173 26.5893C39.1425 26.6415 38.9001 26.6172 38.7611 26.5709C38.6582 26.5268 38.6576 26.3958 38.6933 26.3108C38.8703 25.8898 39.5141 25.6269 39.9237 25.5114Z" fill="black"/>
<path fill-rule="evenodd" clip-rule="evenodd" d="M48.6686 25.9774C48.5922 25.9646 48.5156 25.9526 48.4391 25.9413C48.3793 25.9071 48.3092 25.8809 48.2276 25.865C48.0414 25.8175 47.8564 25.7854 47.6718 25.7681C45.0212 25.1677 38.8894 26.0202 38.6364 28.2967C37.7923 28.5802 37.062 28.3263 36.0837 28.3516C35.339 25.2189 22.4651 25.661 21.846 27.5497C21.8436 27.5491 21.8413 27.5485 21.8389 27.5477C21.244 27.3624 20.367 27.4071 19.686 27.3778C18.2321 27.3471 16.7765 27.4775 15.354 27.7862C12.6902 28.2122 9.0547 28.7111 10.9073 32.0591C10.9077 32.0596 10.908 32.0603 10.9084 32.0608L10.9087 32.0605C11.228 32.3899 11.7699 32.1247 11.79 31.6788C11.1671 30.0927 12.574 29.9022 13.6564 29.4464C16.3497 28.4725 19.0919 28.3375 21.8775 28.6388C22.087 28.8871 22.405 29.1037 22.7411 29.217C24.6036 29.5281 23.6221 30.9187 24.7993 31.1209C24.5831 35.968 30.4301 38.6139 33.8179 35.4275C35.1706 34.0965 35.493 32.1247 35.8066 30.3474C35.9725 30.3099 36.0779 30.2186 36.1395 30.0978C36.5383 29.6971 36.7888 29.327 37.5774 29.217C38.366 29.107 38.9731 29.3278 39.0552 29.3954C39.0759 29.4374 39.0982 29.4794 39.124 29.5215C39.16 29.5842 39.2091 29.6343 39.2648 29.6736C38.4861 34.5004 42.2091 37.5529 45.9676 35.0495C47.6007 33.5033 47.9458 31.1361 48.014 29.0232C48.2354 28.8888 48.3755 28.6282 48.2989 28.3006C48.1933 27.849 48.4409 27.458 48.8354 27.2616C49.3479 27.0067 49.2572 26.0755 48.6686 25.9774ZM32.5188 28.2673C32.0523 28.164 31.853 28.888 32.321 28.9915C32.6525 29.0649 32.9333 29.2331 33.1231 29.518L33.1431 29.549C33.3977 29.9569 34.0416 29.5804 33.7852 29.1699C33.4967 28.708 33.0484 28.3845 32.5188 28.2673ZM46.1826 27.8185C46.0181 27.7019 45.7692 27.7884 45.6738 27.9532C45.5687 28.1346 45.6376 28.3366 45.7916 28.4553L45.8073 28.4669C45.9486 28.5671 46.0862 28.7468 46.1034 28.9309L46.105 28.9539C46.1235 29.4356 46.8673 29.4381 46.8487 28.9539C46.8306 28.4802 46.5581 28.0845 46.1826 27.8185Z" fill="black"/>
</svg>
